<svg xmlns="http://www.w3.org/2000/svg" version="1.1" width="3300" height="2000"><g id="Notes"><style>
    text {
      font-family: monospace;
      text-anchor: middle;
    }
    text.emphasis {
      font-weight:bold;
    }
    text.lanchor {
      text-anchor: start;
    }
  </style><rect height="2200" id="artboard" fill="white" width="3300" x="0" y="0"/><line id="" style="fill:none;stroke:black;stroke-width:0.5;" x1="263" x2="3036" y1="292" y2="292"/><text class="lanchor emphasis" transform="matrix(1 0 0 1 263 322)">Weight/Scale Variations</text><text transform="matrix(1 0 0 1 559.711 322)">Ultralight</text><text transform="matrix(1 0 0 1 856.422 322)">Thin</text><text transform="matrix(1 0 0 1 1153.13 322)">Light</text><text transform="matrix(1 0 0 1 1449.84 322)">Regular</text><text transform="matrix(1 0 0 1 1746.56 322)">Medium</text><text transform="matrix(1 0 0 1 2043.27 322)">Semibold</text><text transform="matrix(1 0 0 1 2339.98 322)">Bold</text><text transform="matrix(1 0 0 1 2636.69 322)">Heavy</text><text transform="matrix(1 0 0 1 2933.4 322)">Black</text><text id="template-version" style="text-anchor: end;" transform="matrix(1 0 0 1 3036 1933)">Template v.1.0</text><text class="lanchor" transform="matrix(1 0 0 1 263 726)">Small</text><text class="lanchor" transform="matrix(1 0 0 1 263 1156)">Medium</text><text class="lanchor" transform="matrix(1 0 0 1 263 1586)">Large</text></g><g id="Guides"><g id="H-reference" style="fill:#27AAE1;stroke:none;" transform="matrix(1 0 0 1 339 696)"><path d="M 54.9316 0 L 57.666 0 L 30.5664 -70.459 L 28.0762 -70.459 L 0.976562 0 L 3.66211 0 L 12.9395 -24.4629 L 45.7031 -24.4629 Z M 29.1992 -67.0898 L 29.4434 -67.0898 L 44.8242 -26.709 L 13.8184 -26.709 Z"/></g><line id="Baseline-S" style="fill:none;stroke:#27AAE1;opacity:1;stroke-width:0.577;" x1="263" x2="3036" y1="696" y2="696"/><line id="Capline-S" style="fill:none;stroke:#27AAE1;opacity:1;stroke-width:0.577;" x1="263" x2="3036" y1="625.541" y2="625.541"/><g id="H-reference" style="fill:#27AAE1;stroke:none;" transform="matrix(1 0 0 1 339 1126)"><path d="M 54.9316 0 L 57.666 0 L 30.5664 -70.459 L 28.0762 -70.459 L 0.976562 0 L 3.66211 0 L 12.9395 -24.4629 L 45.7031 -24.4629 Z M 29.1992 -67.0898 L 29.4434 -67.0898 L 44.8242 -26.709 L 13.8184 -26.709 Z"/></g><line id="Baseline-M" style="fill:none;stroke:#27AAE1;opacity:1;stroke-width:0.577;" x1="263" x2="3036" y1="1126" y2="1126"/><line id="Capline-M" style="fill:none;stroke:#27AAE1;opacity:1;stroke-width:0.577;" x1="263" x2="3036" y1="1055.54" y2="1055.54"/><g id="H-reference" style="fill:#27AAE1;stroke:none;" transform="matrix(1 0 0 1 339 1556)"><path d="M 54.9316 0 L 57.666 0 L 30.5664 -70.459 L 28.0762 -70.459 L 0.976562 0 L 3.66211 0 L 12.9395 -24.4629 L 45.7031 -24.4629 Z M 29.1992 -67.0898 L 29.4434 -67.0898 L 44.8242 -26.709 L 13.8184 -26.709 Z"/></g><line id="Baseline-L" style="fill:none;stroke:#27AAE1;opacity:1;stroke-width:0.577;" x1="263" x2="3036" y1="1556" y2="1556"/><line id="Capline-L" style="fill:none;stroke:#27AAE1;opacity:1;stroke-width:0.577;" x1="263" x2="3036" y1="1485.54" y2="1485.54"/><rect height="119.336" id="left-margin" style="fill:darkred;stroke:none;opacity:0.4;" width="12.4512" x="1394.06" y="1030.79"/><rect height="119.336" id="right-margin" style="fill:darkgreen;stroke:none;opacity:0.4;" width="12.4512" x="1502.5112" y="1030.79"/><rect x="1406.5112" y="1045" width="96" height="96" fill="none" stroke="blue" stroke-dasharray="5"/><rect x="1394.06" y="1030.79" width="120.9024" height="119.336" fill="none" stroke="blue"/></g><g id="Symbols"><g id="Bold-L" transform="matrix(1 0 0 1 2266 1556)"><path d="M30.47625 -40.06749999999998 Q24.231843750000003 -40.06749999999998 19.77521625 -44.52412749999999 Q15.31875 -48.98059374999998 15.31875 -55.38624999999999 V-82.15374999999997 Q15.31875 -88.39815624999999 19.77521625 -92.93524749999997 Q24.231843750000003 -97.47249999999998 30.47625 -97.47249999999998 H57.405 Q63.649406250000006 -97.47249999999998 68.1058725 -92.93524749999997 Q72.5625 -88.39815624999999 72.5625 -82.15374999999997 V-55.38624999999999 Q72.5625 -48.98059374999998 68.1058725 -44.52412749999999 Q63.649406250000006 -40.06749999999998 57.405 -40.06749999999998 H30.47625 Z M30.47625 26.85125000000002 Q24.231843750000003 26.85125000000002 19.77521625 22.394622500000025 Q15.31875 17.93815625000002 15.31875 11.693750000000023 V-15.234999999999985 Q15.31875 -21.479406249999982 19.77521625 -25.935872499999974 Q24.231843750000003 -30.392499999999984 30.47625 -30.392499999999984 H57.405 Q63.649406250000006 -30.392499999999984 68.1058725 -25.935872499999974 Q72.5625 -21.479406249999982 72.5625 -15.234999999999985 V11.693750000000023 Q72.5625 17.93815625000002 68.1058725 22.394622500000025 Q63.649406250000006 26.85125000000002 57.405 26.85125000000002 H30.47625 Z M97.55625 -40.06749999999998 Q91.15059375 -40.06749999999998 86.69412750000001 -44.52412749999999 Q82.2375 -48.98059374999998 82.2375 -55.38624999999999 V-82.15374999999997 Q82.2375 -88.39815624999999 86.69412750000001 -92.93524749999997 Q91.15059375 -97.47249999999998 97.55625 -97.47249999999998 H124.32375 Q130.56815625000002 -97.47249999999998 135.1052475 -92.93524749999997 Q139.6425 -88.39815624999999 139.6425 -82.15374999999997 V-55.38624999999999 Q139.6425 -48.98059374999998 135.1052475 -44.52412749999999 Q130.56815625000002 -40.06749999999998 124.32375 -40.06749999999998 H97.55625 Z M97.55625 26.85125000000002 Q91.15059375 26.85125000000002 86.69412750000001 22.394622500000025 Q82.2375 17.93815625000002 82.2375 11.693750000000023 V-15.234999999999985 Q82.2375 -21.479406249999982 86.69412750000001 -25.935872499999974 Q91.15059375 -30.392499999999984 97.55625 -30.392499999999984 H124.32375 Q130.56815625000002 -30.392499999999984 135.1052475 -25.935872499999974 Q139.6425 -21.479406249999982 139.6425 -15.234999999999985 V11.693750000000023 Q139.6425 17.93815625000002 135.1052475 22.394622500000025 Q130.56815625000002 26.85125000000002 124.32375 26.85125000000002 H97.55625 Z"/></g><g id="Semibold-L" transform="matrix(1 0 0 1 1970.27 1556)"><path d="M29.84527875 -40.06749999999998 Q24.5806275 -40.06749999999998 20.82592125 -43.82220624999998 Q17.07137625 -47.57675124999999 17.07137625 -52.93266999999999 V-82.78472124999999 Q17.07137625 -88.04937249999998 20.82592125 -91.84955124999999 Q24.5806275 -95.64972999999998 29.84527875 -95.64972999999998 H59.7885975 Q65.05324875 -95.64972999999998 68.80779375 -91.84955124999999 Q72.5625 -88.04937249999998 72.5625 -82.78472124999999 V-52.93266999999999 Q72.5625 -47.57675124999999 68.80779375 -43.82220624999998 Q65.05324875 -40.06749999999998 59.7885975 -40.06749999999998 H29.84527875 Z M29.84527875 25.09862375 Q24.5806275 25.09862375 20.82592125 21.344078750000023 Q17.07137625 17.589372500000025 17.07137625 12.32472125000001 V-17.618597499999993 Q17.07137625 -22.883248749999993 20.82592125 -26.637793749999986 Q24.5806275 -30.392499999999984 29.84527875 -30.392499999999984 H59.7885975 Q65.05324875 -30.392499999999984 68.80779375 -26.637793749999986 Q72.5625 -22.883248749999993 72.5625 -17.618597499999993 V12.32472125000001 Q72.5625 17.589372500000025 68.80779375 21.344078750000023 Q65.05324875 25.09862375 59.7885975 25.09862375 H29.84527875 Z M95.10267 -40.06749999999998 Q89.74675125 -40.06749999999998 85.99220625 -43.82220624999998 Q82.2375 -47.57675124999999 82.2375 -52.93266999999999 V-82.78472124999999 Q82.2375 -88.04937249999998 85.99220625 -91.84955124999999 Q89.74675125 -95.64972999999998 95.10267 -95.64972999999998 H124.95472125 Q130.2193725 -95.64972999999998 134.01955125 -91.84955124999999 Q137.81973000000002 -88.04937249999998 137.81973000000002 -82.78472124999999 V-52.93266999999999 Q137.81973000000002 -47.57675124999999 134.01955125 -43.82220624999998 Q130.2193725 -40.06749999999998 124.95472125 -40.06749999999998 H95.10267 Z M95.10267 25.09862375 Q89.74675125 25.09862375 85.99220625 21.344078750000023 Q82.2375 17.589372500000025 82.2375 12.32472125000001 V-17.618597499999993 Q82.2375 -22.883248749999993 85.99220625 -26.637793749999986 Q89.74675125 -30.392499999999984 95.10267 -30.392499999999984 H124.95472125 Q130.2193725 -30.392499999999984 134.01955125 -26.637793749999986 Q137.81973000000002 -22.883248749999993 137.81973000000002 -17.618597499999993 V12.32472125000001 Q137.81973000000002 17.589372500000025 134.01955125 21.344078750000023 Q130.2193725 25.09862375 124.95472125 25.09862375 H95.10267 Z"/></g><g id="Medium-L" transform="matrix(1 0 0 1 1674.31 1556)"><path d="M29.37201 -40.06749999999998 Q24.842175 -40.06749999999998 21.61411125 -43.295563749999985 Q18.3860475 -46.52378874999998 18.3860475 -51.092162499999986 V-83.25798999999998 Q18.3860475 -87.78782499999998 21.61411125 -91.03523874999999 Q24.842175 -94.28265249999998 29.37201 -94.28265249999998 H61.57637625 Q66.10621125 -94.28265249999998 69.33443625 -91.03523874999999 Q72.5625 -87.78782499999998 72.5625 -83.25798999999998 V-51.092162499999986 Q72.5625 -46.52378874999998 69.33443625 -43.295563749999985 Q66.10621125 -40.06749999999998 61.57637625 -40.06749999999998 H29.37201 Z M29.37201 23.783952499999998 Q24.842175 23.783952499999998 21.61411125 20.55588875000001 Q18.3860475 17.32782500000002 18.3860475 12.797989999999999 V-19.40637624999998 Q18.3860475 -23.936211249999985 21.61411125 -27.16443624999998 Q24.842175 -30.392499999999984 29.37201 -30.392499999999984 H61.57637625 Q66.10621125 -30.392499999999984 69.33443625 -27.16443624999998 Q72.5625 -23.936211249999985 72.5625 -19.40637624999998 V12.797989999999999 Q72.5625 17.32782500000002 69.33443625 20.55588875000001 Q66.10621125 23.783952499999998 61.57637625 23.783952499999998 H29.37201 Z M93.2621625 -40.06749999999998 Q88.69378875 -40.06749999999998 85.46556375 -43.295563749999985 Q82.2375 -46.52378874999998 82.2375 -51.092162499999986 V-83.25798999999998 Q82.2375 -87.78782499999998 85.46556375 -91.03523874999999 Q88.69378875 -94.28265249999998 93.2621625 -94.28265249999998 H125.42799 Q129.957825 -94.28265249999998 133.20523875 -91.03523874999999 Q136.4526525 -87.78782499999998 136.4526525 -83.25798999999998 V-51.092162499999986 Q136.4526525 -46.52378874999998 133.20523875 -43.295563749999985 Q129.957825 -40.06749999999998 125.42799 -40.06749999999998 H93.2621625 Z M93.2621625 23.783952499999998 Q88.69378875 23.783952499999998 85.46556375 20.55588875000001 Q82.2375 17.32782500000002 82.2375 12.797989999999999 V-19.40637624999998 Q82.2375 -23.936211249999985 85.46556375 -27.16443624999998 Q88.69378875 -30.392499999999984 93.2621625 -30.392499999999984 H125.42799 Q129.957825 -30.392499999999984 133.20523875 -27.16443624999998 Q136.4526525 -23.936211249999985 136.4526525 -19.40637624999998 V12.797989999999999 Q136.4526525 17.32782500000002 133.20523875 20.55588875000001 Q129.957825 23.783952499999998 125.42799 23.783952499999998 H93.2621625 Z"/></g><g id="Regular-L" transform="matrix(1 0 0 1 1378.56 1556)"><path d="M29.025000000000002 -40.06749999999998 Q25.0340625 -40.06749999999998 22.19203125 -42.909531249999986 Q19.35 -45.75156249999998 19.35 -49.74249999999998 V-83.60499999999999 Q19.35 -87.59593749999999 22.19203125 -90.43796874999998 Q25.0340625 -93.27999999999999 29.025000000000002 -93.27999999999999 H62.8875 Q66.8784375 -93.27999999999999 69.72046875 -90.43796874999998 Q72.5625 -87.59593749999999 72.5625 -83.60499999999999 V-49.74249999999998 Q72.5625 -45.75156249999998 69.72046875 -42.909531249999986 Q66.8784375 -40.06749999999998 62.8875 -40.06749999999998 H29.025000000000002 Z M29.025000000000002 22.82000000000002 Q25.0340625 22.82000000000002 22.19203125 19.97796875000003 Q19.35 17.13593750000001 19.35 13.14500000000001 V-20.717499999999987 Q19.35 -24.708437499999988 22.19203125 -27.55046874999998 Q25.0340625 -30.392499999999984 29.025000000000002 -30.392499999999984 H62.8875 Q66.8784375 -30.392499999999984 69.72046875 -27.55046874999998 Q72.5625 -24.708437499999988 72.5625 -20.717499999999987 V13.14500000000001 Q72.5625 17.13593750000001 69.72046875 19.97796875000003 Q66.8784375 22.82000000000002 62.8875 22.82000000000002 H29.025000000000002 Z M91.91250000000001 -40.06749999999998 Q87.92156250000001 -40.06749999999998 85.07953125 -42.909531249999986 Q82.2375 -45.75156249999998 82.2375 -49.74249999999998 V-83.60499999999999 Q82.2375 -87.59593749999999 85.07953125 -90.43796874999998 Q87.92156250000001 -93.27999999999999 91.91250000000001 -93.27999999999999 H125.775 Q129.7659375 -93.27999999999999 132.60796875 -90.43796874999998 Q135.45000000000002 -87.59593749999999 135.45000000000002 -83.60499999999999 V-49.74249999999998 Q135.45000000000002 -45.75156249999998 132.60796875 -42.909531249999986 Q129.7659375 -40.06749999999998 125.775 -40.06749999999998 H91.91250000000001 Z M91.91250000000001 22.82000000000002 Q87.92156250000001 22.82000000000002 85.07953125 19.97796875000003 Q82.2375 17.13593750000001 82.2375 13.14500000000001 V-20.717499999999987 Q82.2375 -24.708437499999988 85.07953125 -27.55046874999998 Q87.92156250000001 -30.392499999999984 91.91250000000001 -30.392499999999984 H125.775 Q129.7659375 -30.392499999999984 132.60796875 -27.55046874999998 Q135.45000000000002 -24.708437499999988 135.45000000000002 -20.717499999999987 V13.14500000000001 Q135.45000000000002 17.13593750000001 132.60796875 19.97796875000003 Q129.7659375 22.82000000000002 125.775 22.82000000000002 H91.91250000000001 Z"/></g><g id="Light-L" transform="matrix(1 0 0 1 1082.77 1556)"><path d="M29.89333125 -40.50174624999998 Q26.908755000000003 -40.50174624999998 24.74203875 -42.668462499999976 Q22.57516125 -44.83517874999998 22.57516125 -47.81975499999999 V-82.73666874999998 Q22.57516125 -85.72124499999998 24.74203875 -87.88796124999999 Q26.908755000000003 -90.05483874999999 29.89333125 -90.05483874999999 H64.810245 Q67.79482125 -90.05483874999999 69.9615375 -87.88796124999999 Q72.12825375 -85.72124499999998 72.12825375 -82.73666874999998 V-47.81975499999999 Q72.12825375 -44.83517874999998 69.9615375 -42.668462499999976 Q67.79482125 -40.50174624999998 64.810245 -40.50174624999998 H29.89333125 Z M29.89333125 19.594838750000036 Q26.908755000000003 19.594838750000036 24.74203875 17.42796125000004 Q22.57516125 15.26124500000003 22.57516125 12.276668750000027 V-22.64024499999998 Q22.57516125 -25.624821249999982 24.74203875 -27.79153749999999 Q26.908755000000003 -29.958253749999983 29.89333125 -29.958253749999983 H64.810245 Q67.79482125 -29.958253749999983 69.9615375 -27.79153749999999 Q72.12825375 -25.624821249999982 72.12825375 -22.64024499999998 V12.276668750000027 Q72.12825375 15.26124500000003 69.9615375 17.42796125000004 Q67.79482125 19.594838750000036 64.810245 19.594838750000036 H29.89333125 Z M89.989755 -40.50174624999998 Q87.00517875 -40.50174624999998 84.8384625 -42.668462499999976 Q82.67174625 -44.83517874999998 82.67174625 -47.81975499999999 V-82.73666874999998 Q82.67174625 -85.72124499999998 84.8384625 -87.88796124999999 Q87.00517875 -90.05483874999999 89.989755 -90.05483874999999 H124.90666875000001 Q127.89124500000001 -90.05483874999999 130.05796125 -87.88796124999999 Q132.22483875 -85.72124499999998 132.22483875 -82.73666874999998 V-47.81975499999999 Q132.22483875 -44.83517874999998 130.05796125 -42.668462499999976 Q127.89124500000001 -40.50174624999998 124.90666875000001 -40.50174624999998 H89.989755 Z M89.989755 19.594838750000036 Q87.00517875 19.594838750000036 84.8384625 17.42796125000004 Q82.67174625 15.26124500000003 82.67174625 12.276668750000027 V-22.64024499999998 Q82.67174625 -25.624821249999982 84.8384625 -27.79153749999999 Q87.00517875 -29.958253749999983 89.989755 -29.958253749999983 H124.90666875000001 Q127.89124500000001 -29.958253749999983 130.05796125 -27.79153749999999 Q132.22483875 -25.624821249999982 132.22483875 -22.64024499999998 V12.276668750000027 Q132.22483875 15.26124500000003 130.05796125 17.42796125000004 Q127.89124500000001 19.594838750000036 124.90666875000001 19.594838750000036 H89.989755 Z"/></g><g id="Thin-L" transform="matrix(1 0 0 1 787.282 1556)"><path d="M30.761501250000002 -40.93583124999998 Q28.783125000000002 -40.93583124999998 27.2915625 -42.42739374999998 Q25.8 -43.91895624999998 25.8 -45.897332499999976 V-81.86849874999999 Q25.8 -83.84687499999998 27.2915625 -85.33843749999998 Q28.783125000000002 -86.82999999999998 30.761501250000002 -86.82999999999998 H66.7326675 Q68.71104375 -86.82999999999998 70.20260625 -85.33843749999998 Q71.69416875 -83.84687499999998 71.69416875 -81.86849874999999 V-45.897332499999976 Q71.69416875 -43.91895624999998 70.20260625 -42.42739374999998 Q68.71104375 -40.93583124999998 66.7326675 -40.93583124999998 H30.761501250000002 Z M30.761501250000002 16.370000000000033 Q28.783125000000002 16.370000000000033 27.2915625 14.878437500000018 Q25.8 13.386875000000032 25.8 11.408498750000007 V-24.56266749999999 Q25.8 -26.541043749999986 27.2915625 -28.032606249999986 Q28.783125000000002 -29.524168749999987 30.761501250000002 -29.524168749999987 H66.7326675 Q68.71104375 -29.524168749999987 70.20260625 -28.032606249999986 Q71.69416875 -26.541043749999986 71.69416875 -24.56266749999999 V11.408498750000007 Q71.69416875 13.386875000000032 70.20260625 14.878437500000018 Q68.71104375 16.370000000000033 66.7326675 16.370000000000033 H30.761501250000002 Z M88.0673325 -40.93583124999998 Q86.08895625 -40.93583124999998 84.59739375 -42.42739374999998 Q83.10583125 -43.91895624999998 83.10583125 -45.897332499999976 V-81.86849874999999 Q83.10583125 -83.84687499999998 84.59739375 -85.33843749999998 Q86.08895625 -86.82999999999998 88.0673325 -86.82999999999998 H124.03849875 Q126.016875 -86.82999999999998 127.5084375 -85.33843749999998 Q129.0 -83.84687499999998 129.0 -81.86849874999999 V-45.897332499999976 Q129.0 -43.91895624999998 127.5084375 -42.42739374999998 Q126.016875 -40.93583124999998 124.03849875 -40.93583124999998 H88.0673325 Z M88.0673325 16.370000000000033 Q86.08895625 16.370000000000033 84.59739375 14.878437500000018 Q83.10583125 13.386875000000032 83.10583125 11.408498750000007 V-24.56266749999999 Q83.10583125 -26.541043749999986 84.59739375 -28.032606249999986 Q86.08895625 -29.524168749999987 88.0673325 -29.524168749999987 H124.03849875 Q126.016875 -29.524168749999987 127.5084375 -28.032606249999986 Q129.0 -26.541043749999986 129.0 -24.56266749999999 V11.408498750000007 Q129.0 13.386875000000032 127.5084375 14.878437500000018 Q126.016875 16.370000000000033 124.03849875 16.370000000000033 H88.0673325 Z"/></g><g id="Ultralight-L" transform="matrix(1 0 0 1 491.205 1556)"><path d="M31.282500000000002 -41.19624999999998 Q29.90784375 -41.19624999999998 28.8215025 -42.28259124999998 Q27.735 -43.36909374999999 27.735 -44.74374999999998 V-81.34749999999998 Q27.735 -82.72215624999998 28.8215025 -83.80865874999998 Q29.90784375 -84.89499999999998 31.282500000000002 -84.89499999999998 H67.88625 Q69.26090625 -84.89499999999998 70.34740875 -83.80865874999998 Q71.43375 -82.72215624999998 71.43375 -81.34749999999998 V-44.74374999999998 Q71.43375 -43.36909374999999 70.34740875 -42.28259124999998 Q69.26090625 -41.19624999999998 67.88625 -41.19624999999998 H31.282500000000002 Z M31.282500000000002 14.43500000000003 Q29.90784375 14.43500000000003 28.8215025 13.348658750000027 Q27.735 12.262156250000004 27.735 10.887500000000017 V-25.716249999999988 Q27.735 -27.090906249999975 28.8215025 -28.177408749999984 Q29.90784375 -29.263749999999987 31.282500000000002 -29.263749999999987 H67.88625 Q69.26090625 -29.263749999999987 70.34740875 -28.177408749999984 Q71.43375 -27.090906249999975 71.43375 -25.716249999999988 V10.887500000000017 Q71.43375 12.262156250000004 70.34740875 13.348658750000027 Q69.26090625 14.43500000000003 67.88625 14.43500000000003 H31.282500000000002 Z M86.91375000000001 -41.19624999999998 Q85.53909375 -41.19624999999998 84.45259125 -42.28259124999998 Q83.36625000000001 -43.36909374999999 83.36625000000001 -44.74374999999998 V-81.34749999999998 Q83.36625000000001 -82.72215624999998 84.45259125 -83.80865874999998 Q85.53909375 -84.89499999999998 86.91375000000001 -84.89499999999998 H123.5175 Q124.89215625 -84.89499999999998 125.97865875000001 -83.80865874999998 Q127.065 -82.72215624999998 127.065 -81.34749999999998 V-44.74374999999998 Q127.065 -43.36909374999999 125.97865875000001 -42.28259124999998 Q124.89215625 -41.19624999999998 123.5175 -41.19624999999998 H86.91375000000001 Z M86.91375000000001 14.43500000000003 Q85.53909375 14.43500000000003 84.45259125 13.348658750000027 Q83.36625000000001 12.262156250000004 83.36625000000001 10.887500000000017 V-25.716249999999988 Q83.36625000000001 -27.090906249999975 84.45259125 -28.177408749999984 Q85.53909375 -29.263749999999987 86.91375000000001 -29.263749999999987 H123.5175 Q124.89215625 -29.263749999999987 125.97865875000001 -28.177408749999984 Q127.065 -27.090906249999975 127.065 -25.716249999999988 V10.887500000000017 Q127.065 12.262156250000004 125.97865875000001 13.348658750000027 Q124.89215625 14.43500000000003 123.5175 14.43500000000003 H86.91375000000001 Z"/></g><g id="Bold-M" transform="matrix(1 0 0 1 2281.8 1126)"><path d="M26.5 -40.22999999999999 Q20.003125 -40.22999999999999 15.3765 -44.85662499999999 Q10.75 -49.48312499999999 10.75 -55.97999999999999 V-68.72999999999999 Q10.75 -75.22687499999999 15.3765 -79.85337499999999 Q20.003125 -84.47999999999999 26.5 -84.47999999999999 H39.25 Q45.746875 -84.47999999999999 50.373375 -79.85337499999999 Q55.0 -75.22687499999999 55.0 -68.72999999999999 V-55.97999999999999 Q55.0 -49.48312499999999 50.373375 -44.85662499999999 Q45.746875 -40.22999999999999 39.25 -40.22999999999999 H26.5 Z M26.5 14.02000000000001 Q20.003125 14.02000000000001 15.3765 9.393375000000006 Q10.75 4.766875000000013 10.75 -1.7299999999999898 V-14.47999999999999 Q10.75 -20.976874999999993 15.3765 -25.603374999999986 Q20.003125 -30.22999999999999 26.5 -30.22999999999999 H39.25 Q45.746875 -30.22999999999999 50.373375 -25.603374999999986 Q55.0 -20.976874999999993 55.0 -14.47999999999999 V-1.7299999999999898 Q55.0 4.766875000000013 50.373375 9.393375000000006 Q45.746875 14.02000000000001 39.25 14.02000000000001 H26.5 Z M80.75 -40.22999999999999 Q74.253125 -40.22999999999999 69.626625 -44.85662499999999 Q65.0 -49.48312499999999 65.0 -55.97999999999999 V-68.72999999999999 Q65.0 -75.22687499999999 69.626625 -79.85337499999999 Q74.253125 -84.47999999999999 80.75 -84.47999999999999 H93.5 Q99.996875 -84.47999999999999 104.623375 -79.85337499999999 Q109.25 -75.22687499999999 109.25 -68.72999999999999 V-55.97999999999999 Q109.25 -49.48312499999999 104.623375 -44.85662499999999 Q99.996875 -40.22999999999999 93.5 -40.22999999999999 H80.75 Z M80.75 14.02000000000001 Q74.253125 14.02000000000001 69.626625 9.393375000000006 Q65.0 4.766875000000013 65.0 -1.7299999999999898 V-14.47999999999999 Q65.0 -20.976874999999993 69.626625 -25.603374999999986 Q74.253125 -30.22999999999999 80.75 -30.22999999999999 H93.5 Q99.996875 -30.22999999999999 104.623375 -25.603374999999986 Q109.25 -20.976874999999993 109.25 -14.47999999999999 V-1.7299999999999898 Q109.25 4.766875000000013 104.623375 9.393375000000006 Q99.996875 14.02000000000001 93.5 14.02000000000001 H80.75 Z"/></g><g id="Semibold-M" transform="matrix(1 0 0 1 1985.97 1126)"><path d="M25.847875 -40.22999999999999 Q20.382125 -40.22999999999999 16.49 -44.12224999999999 Q12.59775 -48.01449999999999 12.59775 -53.48012499999999 V-69.38212499999999 Q12.59775 -74.84787499999999 16.49 -78.74 Q20.382125 -82.63224999999998 25.847875 -82.63224999999998 H41.749875 Q47.2155 -82.63224999999998 51.10775 -78.74 Q55.0 -74.84787499999999 55.0 -69.38212499999999 V-53.48012499999999 Q55.0 -48.01449999999999 51.10775 -44.12224999999999 Q47.2155 -40.22999999999999 41.749875 -40.22999999999999 H25.847875 Z M25.847875 12.172250000000005 Q20.382125 12.172250000000005 16.49 8.280125000000012 Q12.59775 4.387875000000008 12.59775 -1.0778749999999917 V-16.979874999999993 Q12.59775 -22.445499999999996 16.49 -26.337749999999986 Q20.382125 -30.22999999999999 25.847875 -30.22999999999999 H41.749875 Q47.2155 -30.22999999999999 51.10775 -26.337749999999986 Q55.0 -22.445499999999996 55.0 -16.979874999999993 V-1.0778749999999917 Q55.0 4.387875000000008 51.10775 8.280125000000012 Q47.2155 12.172250000000005 41.749875 12.172250000000005 H25.847875 Z M78.250125 -40.22999999999999 Q72.7845 -40.22999999999999 68.89225 -44.12224999999999 Q65.0 -48.01449999999999 65.0 -53.48012499999999 V-69.38212499999999 Q65.0 -74.84787499999999 68.89225 -78.74 Q72.7845 -82.63224999999998 78.250125 -82.63224999999998 H94.152125 Q99.617875 -82.63224999999998 103.51 -78.74 Q107.40225 -74.84787499999999 107.40225 -69.38212499999999 V-53.48012499999999 Q107.40225 -48.01449999999999 103.51 -44.12224999999999 Q99.617875 -40.22999999999999 94.152125 -40.22999999999999 H78.250125 Z M78.250125 12.172250000000005 Q72.7845 12.172250000000005 68.89225 8.280125000000012 Q65.0 4.387875000000008 65.0 -1.0778749999999917 V-16.979874999999993 Q65.0 -22.445499999999996 68.89225 -26.337749999999986 Q72.7845 -30.22999999999999 78.250125 -30.22999999999999 H94.152125 Q99.617875 -30.22999999999999 103.51 -26.337749999999986 Q107.40225 -22.445499999999996 107.40225 -16.979874999999993 V-1.0778749999999917 Q107.40225 4.387875000000008 103.51 8.280125000000012 Q99.617875 12.172250000000005 94.152125 12.172250000000005 H78.250125 Z"/></g><g id="Medium-M" transform="matrix(1 0 0 1 1689.91 1126)"><path d="M25.35875 -40.22999999999999 Q20.6665 -40.22999999999999 17.325125 -43.57137499999999 Q13.983625 -46.91287499999999 13.983625 -51.60499999999999 V-69.87124999999999 Q13.983625 -74.56349999999999 17.325125 -77.90487499999999 Q20.6665 -81.24637499999999 25.35875 -81.24637499999999 H43.625 Q48.317125 -81.24637499999999 51.658625 -77.90487499999999 Q55.0 -74.56349999999999 55.0 -69.87124999999999 V-51.60499999999999 Q55.0 -46.91287499999999 51.658625 -43.57137499999999 Q48.317125 -40.22999999999999 43.625 -40.22999999999999 H25.35875 Z M25.35875 10.786375000000007 Q20.6665 10.786375000000007 17.325125 7.44487500000001 Q13.983625 4.103500000000011 13.983625 -0.5887499999999903 V-18.85499999999999 Q13.983625 -23.547124999999994 17.325125 -26.88862499999999 Q20.6665 -30.22999999999999 25.35875 -30.22999999999999 H43.625 Q48.317125 -30.22999999999999 51.658625 -26.88862499999999 Q55.0 -23.547124999999994 55.0 -18.85499999999999 V-0.5887499999999903 Q55.0 4.103500000000011 51.658625 7.44487500000001 Q48.317125 10.786375000000007 43.625 10.786375000000007 H25.35875 Z M76.375 -40.22999999999999 Q71.682875 -40.22999999999999 68.341375 -43.57137499999999 Q65.0 -46.91287499999999 65.0 -51.60499999999999 V-69.87124999999999 Q65.0 -74.56349999999999 68.341375 -77.90487499999999 Q71.682875 -81.24637499999999 76.375 -81.24637499999999 H94.64125 Q99.3335 -81.24637499999999 102.674875 -77.90487499999999 Q106.016375 -74.56349999999999 106.016375 -69.87124999999999 V-51.60499999999999 Q106.016375 -46.91287499999999 102.674875 -43.57137499999999 Q99.3335 -40.22999999999999 94.64125 -40.22999999999999 H76.375 Z M76.375 10.786375000000007 Q71.682875 10.786375000000007 68.341375 7.44487500000001 Q65.0 4.103500000000011 65.0 -0.5887499999999903 V-18.85499999999999 Q65.0 -23.547124999999994 68.341375 -26.88862499999999 Q71.682875 -30.22999999999999 76.375 -30.22999999999999 H94.64125 Q99.3335 -30.22999999999999 102.674875 -26.88862499999999 Q106.016375 -23.547124999999994 106.016375 -18.85499999999999 V-0.5887499999999903 Q106.016375 4.103500000000011 102.674875 7.44487500000001 Q99.3335 10.786375000000007 94.64125 10.786375000000007 H76.375 Z"/></g><g id="Regular-M" transform="matrix(1 0 0 1 1394.06 1126)"><path d="M25.0 -40.22999999999999 Q20.875 -40.22999999999999 17.9375 -43.16749999999999 Q15.0 -46.10499999999999 15.0 -50.22999999999999 V-70.22999999999999 Q15.0 -74.35499999999999 17.9375 -77.29249999999999 Q20.875 -80.22999999999999 25.0 -80.22999999999999 H45.0 Q49.125 -80.22999999999999 52.0625 -77.29249999999999 Q55.0 -74.35499999999999 55.0 -70.22999999999999 V-50.22999999999999 Q55.0 -46.10499999999999 52.0625 -43.16749999999999 Q49.125 -40.22999999999999 45.0 -40.22999999999999 H25.0 Z M25.0 9.77000000000001 Q20.875 9.77000000000001 17.9375 6.83250000000001 Q15.0 3.8950000000000102 15.0 -0.22999999999998977 V-20.22999999999999 Q15.0 -24.35499999999999 17.9375 -27.29249999999999 Q20.875 -30.22999999999999 25.0 -30.22999999999999 H45.0 Q49.125 -30.22999999999999 52.0625 -27.29249999999999 Q55.0 -24.35499999999999 55.0 -20.22999999999999 V-0.22999999999998977 Q55.0 3.8950000000000102 52.0625 6.83250000000001 Q49.125 9.77000000000001 45.0 9.77000000000001 H25.0 Z M75.0 -40.22999999999999 Q70.875 -40.22999999999999 67.9375 -43.16749999999999 Q65.0 -46.10499999999999 65.0 -50.22999999999999 V-70.22999999999999 Q65.0 -74.35499999999999 67.9375 -77.29249999999999 Q70.875 -80.22999999999999 75.0 -80.22999999999999 H95.0 Q99.125 -80.22999999999999 102.0625 -77.29249999999999 Q105.0 -74.35499999999999 105.0 -70.22999999999999 V-50.22999999999999 Q105.0 -46.10499999999999 102.0625 -43.16749999999999 Q99.125 -40.22999999999999 95.0 -40.22999999999999 H75.0 Z M75.0 9.77000000000001 Q70.875 9.77000000000001 67.9375 6.83250000000001 Q65.0 3.8950000000000102 65.0 -0.22999999999998977 V-20.22999999999999 Q65.0 -24.35499999999999 67.9375 -27.29249999999999 Q70.875 -30.22999999999999 75.0 -30.22999999999999 H95.0 Q99.125 -30.22999999999999 102.0625 -27.29249999999999 Q105.0 -24.35499999999999 105.0 -20.22999999999999 V-0.22999999999998977 Q105.0 3.8950000000000102 102.0625 6.83250000000001 Q99.125 9.77000000000001 95.0 9.77000000000001 H75.0 Z"/></g><g id="Light-M" transform="matrix(1 0 0 1 1098.18 1126)"><path d="M25.0 -40.22999999999999 Q21.93275 -40.22999999999999 19.7165 -42.44624999999999 Q17.500125 -44.66262499999999 17.500125 -47.72987499999999 V-70.22999999999999 Q17.500125 -73.29724999999999 19.7165 -75.5135 Q21.93275 -77.72987499999999 25.0 -77.72987499999999 H47.500125 Q50.567375 -77.72987499999999 52.78375 -75.5135 Q55.0 -73.29724999999999 55.0 -70.22999999999999 V-47.72987499999999 Q55.0 -44.66262499999999 52.78375 -42.44624999999999 Q50.567375 -40.22999999999999 47.500125 -40.22999999999999 H25.0 Z M25.0 7.269875000000013 Q21.93275 7.269875000000013 19.7165 5.053500000000014 Q17.500125 2.8372500000000116 17.500125 -0.22999999999998977 V-22.730124999999987 Q17.500125 -25.797374999999988 19.7165 -28.013749999999987 Q21.93275 -30.22999999999999 25.0 -30.22999999999999 H47.500125 Q50.567375 -30.22999999999999 52.78375 -28.013749999999987 Q55.0 -25.797374999999988 55.0 -22.730124999999987 V-0.22999999999998977 Q55.0 2.8372500000000116 52.78375 5.053500000000014 Q50.567375 7.269875000000013 47.500125 7.269875000000013 H25.0 Z M72.499875 -40.22999999999999 Q69.432625 -40.22999999999999 67.21625 -42.44624999999999 Q65.0 -44.66262499999999 65.0 -47.72987499999999 V-70.22999999999999 Q65.0 -73.29724999999999 67.21625 -75.5135 Q69.432625 -77.72987499999999 72.499875 -77.72987499999999 H95.0 Q98.06725 -77.72987499999999 100.2835 -75.5135 Q102.499875 -73.29724999999999 102.499875 -70.22999999999999 V-47.72987499999999 Q102.499875 -44.66262499999999 100.2835 -42.44624999999999 Q98.06725 -40.22999999999999 95.0 -40.22999999999999 H72.499875 Z M72.499875 7.269875000000013 Q69.432625 7.269875000000013 67.21625 5.053500000000014 Q65.0 2.8372500000000116 65.0 -0.22999999999998977 V-22.730124999999987 Q65.0 -25.797374999999988 67.21625 -28.013749999999987 Q69.432625 -30.22999999999999 72.499875 -30.22999999999999 H95.0 Q98.06725 -30.22999999999999 100.2835 -28.013749999999987 Q102.499875 -25.797374999999988 102.499875 -22.730124999999987 V-0.22999999999998977 Q102.499875 2.8372500000000116 100.2835 5.053500000000014 Q98.06725 7.269875000000013 95.0 7.269875000000013 H72.499875 Z"/></g><g id="Thin-M" transform="matrix(1 0 0 1 802.565 1126)"><path d="M25.0 -40.22999999999999 Q22.990375 -40.22999999999999 21.495125 -41.72524999999999 Q20.0 -43.22037499999999 20.0 -45.22999999999999 V-70.22999999999999 Q20.0 -72.23962499999999 21.495125 -73.73487499999999 Q22.990375 -75.22999999999999 25.0 -75.22999999999999 H50.0 Q52.009625 -75.22999999999999 53.50475 -73.73487499999999 Q55.0 -72.23962499999999 55.0 -70.22999999999999 V-45.22999999999999 Q55.0 -43.22037499999999 53.50475 -41.72524999999999 Q52.009625 -40.22999999999999 50.0 -40.22999999999999 H25.0 Z M25.0 4.77000000000001 Q22.990375 4.77000000000001 21.495125 3.2748750000000086 Q20.0 1.77962500000001 20.0 -0.22999999999998977 V-25.22999999999999 Q20.0 -27.23962499999999 21.495125 -28.73474999999999 Q22.990375 -30.22999999999999 25.0 -30.22999999999999 H50.0 Q52.009625 -30.22999999999999 53.50475 -28.73474999999999 Q55.0 -27.23962499999999 55.0 -25.22999999999999 V-0.22999999999998977 Q55.0 1.77962500000001 53.50475 3.2748750000000086 Q52.009625 4.77000000000001 50.0 4.77000000000001 H25.0 Z M70.0 -40.22999999999999 Q67.990375 -40.22999999999999 66.49525 -41.72524999999999 Q65.0 -43.22037499999999 65.0 -45.22999999999999 V-70.22999999999999 Q65.0 -72.23962499999999 66.49525 -73.73487499999999 Q67.990375 -75.22999999999999 70.0 -75.22999999999999 H95.0 Q97.009625 -75.22999999999999 98.504875 -73.73487499999999 Q100.0 -72.23962499999999 100.0 -70.22999999999999 V-45.22999999999999 Q100.0 -43.22037499999999 98.504875 -41.72524999999999 Q97.009625 -40.22999999999999 95.0 -40.22999999999999 H70.0 Z M70.0 4.77000000000001 Q67.990375 4.77000000000001 66.49525 3.2748750000000086 Q65.0 1.77962500000001 65.0 -0.22999999999998977 V-25.22999999999999 Q65.0 -27.23962499999999 66.49525 -28.73474999999999 Q67.990375 -30.22999999999999 70.0 -30.22999999999999 H95.0 Q97.009625 -30.22999999999999 98.504875 -28.73474999999999 Q100.0 -27.23962499999999 100.0 -25.22999999999999 V-0.22999999999998977 Q100.0 1.77962500000001 98.504875 3.2748750000000086 Q97.009625 4.77000000000001 95.0 4.77000000000001 H70.0 Z"/></g><g id="Ultralight-M" transform="matrix(1 0 0 1 506.415 1126)"><path d="M25.0 -40.22999999999999 Q23.625 -40.22999999999999 22.5625 -41.29249999999999 Q21.5 -42.35499999999999 21.5 -43.72999999999999 V-70.22999999999999 Q21.5 -71.60499999999999 22.5625 -72.66749999999999 Q23.625 -73.72999999999999 25.0 -73.72999999999999 H51.5 Q52.875 -73.72999999999999 53.9375 -72.66749999999999 Q55.0 -71.60499999999999 55.0 -70.22999999999999 V-43.72999999999999 Q55.0 -42.35499999999999 53.9375 -41.29249999999999 Q52.875 -40.22999999999999 51.5 -40.22999999999999 H25.0 Z M25.0 3.2700000000000102 Q23.625 3.2700000000000102 22.5625 2.2075000000000102 Q21.5 1.1450000000000102 21.5 -0.22999999999998977 V-26.72999999999999 Q21.5 -28.10499999999999 22.5625 -29.16749999999999 Q23.625 -30.22999999999999 25.0 -30.22999999999999 H51.5 Q52.875 -30.22999999999999 53.9375 -29.16749999999999 Q55.0 -28.10499999999999 55.0 -26.72999999999999 V-0.22999999999998977 Q55.0 1.1450000000000102 53.9375 2.2075000000000102 Q52.875 3.2700000000000102 51.5 3.2700000000000102 H25.0 Z M68.5 -40.22999999999999 Q67.125 -40.22999999999999 66.0625 -41.29249999999999 Q65.0 -42.35499999999999 65.0 -43.72999999999999 V-70.22999999999999 Q65.0 -71.60499999999999 66.0625 -72.66749999999999 Q67.125 -73.72999999999999 68.5 -73.72999999999999 H95.0 Q96.375 -73.72999999999999 97.4375 -72.66749999999999 Q98.5 -71.60499999999999 98.5 -70.22999999999999 V-43.72999999999999 Q98.5 -42.35499999999999 97.4375 -41.29249999999999 Q96.375 -40.22999999999999 95.0 -40.22999999999999 H68.5 Z M68.5 3.2700000000000102 Q67.125 3.2700000000000102 66.0625 2.2075000000000102 Q65.0 1.1450000000000102 65.0 -0.22999999999998977 V-26.72999999999999 Q65.0 -28.10499999999999 66.0625 -29.16749999999999 Q67.125 -30.22999999999999 68.5 -30.22999999999999 H95.0 Q96.375 -30.22999999999999 97.4375 -29.16749999999999 Q98.5 -28.10499999999999 98.5 -26.72999999999999 V-0.22999999999998977 Q98.5 1.1450000000000102 97.4375 2.2075000000000102 Q96.375 3.2700000000000102 95.0 3.2700000000000102 H68.5 Z"/></g><g id="Bold-S" transform="matrix(1 0 0 1 2294.23 696)"><path d="M21.303 -39.372249999999994 Q16.014234375 -39.372249999999994 12.248041500000001 -43.138541499999995 Q8.48175 -46.904734375 8.48175 -52.19349999999999 V-61.266999999999996 Q8.48175 -66.55576562499999 12.248041500000001 -70.3219585 Q16.014234375 -74.08824999999999 21.303 -74.08824999999999 H30.3765 Q35.665265625 -74.08824999999999 39.431458500000005 -70.3219585 Q43.19775 -66.55576562499999 43.19775 -61.266999999999996 V-52.19349999999999 Q43.19775 -46.904734375 39.431458500000005 -43.138541499999995 Q35.665265625 -39.372249999999994 30.3765 -39.372249999999994 H21.303 Z M21.303 3.6282500000000084 Q16.014234375 3.6282500000000084 12.248041500000001 -0.13804149999998572 Q8.48175 -3.9042343749999873 8.48175 -9.192999999999998 V-18.266499999999994 Q8.48175 -23.55526562499999 12.248041500000001 -27.32145849999999 Q16.014234375 -31.087749999999993 21.303 -31.087749999999993 H30.3765 Q35.665265625 -31.087749999999993 39.431458500000005 -27.32145849999999 Q43.19775 -23.55526562499999 43.19775 -18.266499999999994 V-9.192999999999998 Q43.19775 -3.9042343749999873 39.431458500000005 -0.13804149999998572 Q35.665265625 3.6282500000000084 30.3765 3.6282500000000084 H21.303 Z M64.3035 -39.372249999999994 Q59.014734375 -39.372249999999994 55.2485415 -43.138541499999995 Q51.48225 -46.904734375 51.48225 -52.19349999999999 V-61.266999999999996 Q51.48225 -66.55576562499999 55.2485415 -70.3219585 Q59.014734375 -74.08824999999999 64.3035 -74.08824999999999 H73.37700000000001 Q78.665765625 -74.08824999999999 82.43195850000001 -70.3219585 Q86.19825 -66.55576562499999 86.19825 -61.266999999999996 V-52.19349999999999 Q86.19825 -46.904734375 82.43195850000001 -43.138541499999995 Q78.665765625 -39.372249999999994 73.37700000000001 -39.372249999999994 H64.3035 Z M64.3035 3.6282500000000084 Q59.014734375 3.6282500000000084 55.2485415 -0.13804149999998572 Q51.48225 -3.9042343749999873 51.48225 -9.192999999999998 V-18.266499999999994 Q51.48225 -23.55526562499999 55.2485415 -27.32145849999999 Q59.014734375 -31.087749999999993 64.3035 -31.087749999999993 H73.37700000000001 Q78.665765625 -31.087749999999993 82.43195850000001 -27.32145849999999 Q86.19825 -23.55526562499999 86.19825 -18.266499999999994 V-9.192999999999998 Q86.19825 -3.9042343749999873 82.43195850000001 -0.13804149999998572 Q78.665765625 3.6282500000000084 73.37700000000001 3.6282500000000084 H64.3035 Z"/></g><g id="Semibold-S" transform="matrix(1 0 0 1 1998.1 696)"><path d="M20.788473375 -39.372249999999994 Q16.313265375 -39.372249999999994 13.126494375 -42.559119624999994 Q9.93962475 -45.745989249999994 9.93962475 -50.22109862499999 V-61.781526625 Q9.93962475 -66.25673462499999 13.126494375 -69.44360424999999 Q16.313265375 -72.63037524999999 20.788473375 -72.63037524999999 H32.348901375000004 Q36.82401075000001 -72.63037524999999 40.010880375000006 -69.44360424999999 Q43.19775 -66.25673462499999 43.19775 -61.781526625 V-50.22109862499999 Q43.19775 -45.745989249999994 40.010880375000006 -42.559119624999994 Q36.82401075000001 -39.372249999999994 32.348901375000004 -39.372249999999994 H20.788473375 Z M20.788473375 2.1703752500000064 Q16.313265375 2.1703752500000064 13.126494375 -1.016395750000001 Q9.93962475 -4.203265375000001 9.93962475 -8.678473374999996 V-20.238901374999998 Q9.93962475 -24.71401075 13.126494375 -27.900880375 Q16.313265375 -31.087749999999993 20.788473375 -31.087749999999993 H32.348901375000004 Q36.82401075000001 -31.087749999999993 40.010880375000006 -27.900880375 Q43.19775 -24.71401075 43.19775 -20.238901374999998 V-8.678473374999996 Q43.19775 -4.203265375000001 40.010880375000006 -1.016395750000001 Q36.82401075000001 2.1703752500000064 32.348901375000004 2.1703752500000064 H20.788473375 Z M62.331098625 -39.372249999999994 Q57.85598925 -39.372249999999994 54.669119625 -42.559119624999994 Q51.48225 -45.745989249999994 51.48225 -50.22109862499999 V-61.781526625 Q51.48225 -66.25673462499999 54.669119625 -69.44360424999999 Q57.85598925 -72.63037524999999 62.331098625 -72.63037524999999 H73.891526625 Q78.366734625 -72.63037524999999 81.55360424999999 -69.44360424999999 Q84.74037525 -66.25673462499999 84.74037525 -61.781526625 V-50.22109862499999 Q84.74037525 -45.745989249999994 81.55360424999999 -42.559119624999994 Q78.366734625 -39.372249999999994 73.891526625 -39.372249999999994 H62.331098625 Z M62.331098625 2.1703752500000064 Q57.85598925 2.1703752500000064 54.669119625 -1.016395750000001 Q51.48225 -4.203265375000001 51.48225 -8.678473374999996 V-20.238901374999998 Q51.48225 -24.71401075 54.669119625 -27.900880375 Q57.85598925 -31.087749999999993 62.331098625 -31.087749999999993 H73.891526625 Q78.366734625 -31.087749999999993 81.55360424999999 -27.900880375 Q84.74037525 -24.71401075 84.74037525 -20.238901374999998 V-8.678473374999996 Q84.74037525 -4.203265375000001 81.55360424999999 -1.016395750000001 Q78.366734625 2.1703752500000064 73.891526625 2.1703752500000064 H62.331098625 Z"/></g><g id="Medium-S" transform="matrix(1 0 0 1 1701.85 696)"><path d="M20.402553750000003 -39.372249999999994 Q16.53763725 -39.372249999999994 13.785408000000002 -42.12447924999999 Q11.033080125 -44.87680712499999 11.033080125 -48.74162499999999 V-62.16744625 Q11.033080125 -66.03236274999999 13.785408000000002 -68.784592 Q16.53763725 -71.536919875 20.402553750000003 -71.536919875 H33.828375 Q37.693192875 -71.536919875 40.44552075 -68.784592 Q43.19775 -66.03236274999999 43.19775 -62.16744625 V-48.74162499999999 Q43.19775 -44.87680712499999 40.44552075 -42.12447924999999 Q37.693192875 -39.372249999999994 33.828375 -39.372249999999994 H20.402553750000003 Z M20.402553750000003 1.0769198750000015 Q16.53763725 1.0769198750000015 13.785408000000002 -1.6754079999999902 Q11.033080125 -4.427637249999989 11.033080125 -8.292553749999996 V-21.718374999999995 Q11.033080125 -25.583192874999995 13.785408000000002 -28.33552075 Q16.53763725 -31.087749999999993 20.402553750000003 -31.087749999999993 H33.828375 Q37.693192875 -31.087749999999993 40.44552075 -28.33552075 Q43.19775 -25.583192874999995 43.19775 -21.718374999999995 V-8.292553749999996 Q43.19775 -4.427637249999989 40.44552075 -1.6754079999999902 Q37.693192875 1.0769198750000015 33.828375 1.0769198750000015 H20.402553750000003 Z M60.851625000000006 -39.372249999999994 Q56.986807125 -39.372249999999994 54.23447925 -42.12447924999999 Q51.48225 -44.87680712499999 51.48225 -48.74162499999999 V-62.16744625 Q51.48225 -66.03236274999999 54.23447925 -68.784592 Q56.986807125 -71.536919875 60.851625000000006 -71.536919875 H74.27744625 Q78.14236275 -71.536919875 80.894592 -68.784592 Q83.646919875 -66.03236274999999 83.646919875 -62.16744625 V-48.74162499999999 Q83.646919875 -44.87680712499999 80.894592 -42.12447924999999 Q78.14236275 -39.372249999999994 74.27744625 -39.372249999999994 H60.851625000000006 Z M60.851625000000006 1.0769198750000015 Q56.986807125 1.0769198750000015 54.23447925 -1.6754079999999902 Q51.48225 -4.427637249999989 51.48225 -8.292553749999996 V-21.718374999999995 Q51.48225 -25.583192874999995 54.23447925 -28.33552075 Q56.986807125 -31.087749999999993 60.851625000000006 -31.087749999999993 H74.27744625 Q78.14236275 -31.087749999999993 80.894592 -28.33552075 Q83.646919875 -25.583192874999995 83.646919875 -21.718374999999995 V-8.292553749999996 Q83.646919875 -4.427637249999989 80.894592 -1.6754079999999902 Q78.14236275 1.0769198750000015 74.27744625 1.0769198750000015 H60.851625000000006 Z"/></g><g id="Regular-S" transform="matrix(1 0 0 1 1405.73 696)"><path d="M20.119500000000002 -39.372249999999994 Q16.70214375 -39.372249999999994 14.268571875000001 -41.80582187499999 Q11.835 -44.23939375 11.835 -47.656749999999995 V-62.45049999999999 Q11.835 -65.86785624999999 14.268571875000001 -68.301428125 Q16.70214375 -70.735 20.119500000000002 -70.735 H34.913250000000005 Q38.33060625 -70.735 40.764178125 -68.301428125 Q43.19775 -65.86785624999999 43.19775 -62.45049999999999 V-47.656749999999995 Q43.19775 -44.23939375 40.764178125 -41.80582187499999 Q38.33060625 -39.372249999999994 34.913250000000005 -39.372249999999994 H20.119500000000002 Z M20.119500000000002 0.2750000000000057 Q16.70214375 0.2750000000000057 14.268571875000001 -2.1585718749999927 Q11.835 -4.592143749999991 11.835 -8.009499999999989 V-22.80324999999999 Q11.835 -26.22060624999999 14.268571875000001 -28.654178125 Q16.70214375 -31.087749999999993 20.119500000000002 -31.087749999999993 H34.913250000000005 Q38.33060625 -31.087749999999993 40.764178125 -28.654178125 Q43.19775 -26.22060624999999 43.19775 -22.80324999999999 V-8.009499999999989 Q43.19775 -4.592143749999991 40.764178125 -2.1585718749999927 Q38.33060625 0.2750000000000057 34.913250000000005 0.2750000000000057 H20.119500000000002 Z M59.76675 -39.372249999999994 Q56.349393750000004 -39.372249999999994 53.915821875 -41.80582187499999 Q51.48225 -44.23939375 51.48225 -47.656749999999995 V-62.45049999999999 Q51.48225 -65.86785624999999 53.915821875 -68.301428125 Q56.349393750000004 -70.735 59.76675 -70.735 H74.5605 Q77.97785625 -70.735 80.41142812500001 -68.301428125 Q82.845 -65.86785624999999 82.845 -62.45049999999999 V-47.656749999999995 Q82.845 -44.23939375 80.41142812500001 -41.80582187499999 Q77.97785625 -39.372249999999994 74.5605 -39.372249999999994 H59.76675 Z M59.76675 0.2750000000000057 Q56.349393750000004 0.2750000000000057 53.915821875 -2.1585718749999927 Q51.48225 -4.592143749999991 51.48225 -8.009499999999989 V-22.80324999999999 Q51.48225 -26.22060624999999 53.915821875 -28.654178125 Q56.349393750000004 -31.087749999999993 59.76675 -31.087749999999993 H74.5605 Q77.97785625 -31.087749999999993 80.41142812500001 -28.654178125 Q82.845 -26.22060624999999 82.845 -22.80324999999999 V-8.009499999999989 Q82.845 -4.592143749999991 80.41142812500001 -2.1585718749999927 Q77.97785625 0.2750000000000057 74.5605 0.2750000000000057 H59.76675 Z"/></g><g id="Light-S" transform="matrix(1 0 0 1 1109.75 696)"><path d="M20.119500000000002 -39.372249999999994 Q17.536708500000003 -39.372249999999994 15.672202875000002 -41.236755624999994 Q13.807598625 -43.10135987499999 13.807598625 -45.684151375 V-62.45049999999999 Q13.807598625 -65.03329149999999 15.672202875000002 -66.897797125 Q17.536708500000003 -68.762401375 20.119500000000002 -68.762401375 H36.885848625 Q39.468640125 -68.762401375 41.33324437500001 -66.897797125 Q43.19775 -65.03329149999999 43.19775 -62.45049999999999 V-45.684151375 Q43.19775 -43.10135987499999 41.33324437500001 -41.236755624999994 Q39.468640125 -39.372249999999994 36.885848625 -39.372249999999994 H20.119500000000002 Z M20.119500000000002 -1.6975986249999835 Q17.536708500000003 -1.6975986249999835 15.672202875000002 -3.562202874999997 Q13.807598625 -5.4267084999999895 13.807598625 -8.009499999999989 V-24.775848624999995 Q13.807598625 -27.358640124999994 15.672202875000002 -29.223244375 Q17.536708500000003 -31.087749999999993 20.119500000000002 -31.087749999999993 H36.885848625 Q39.468640125 -31.087749999999993 41.33324437500001 -29.223244375 Q43.19775 -27.358640124999994 43.19775 -24.775848624999995 V-8.009499999999989 Q43.19775 -5.4267084999999895 41.33324437500001 -3.562202874999997 Q39.468640125 -1.6975986249999835 36.885848625 -1.6975986249999835 H20.119500000000002 Z M57.794151375000006 -39.372249999999994 Q55.21135987500001 -39.372249999999994 53.346755625 -41.236755624999994 Q51.48225 -43.10135987499999 51.48225 -45.684151375 V-62.45049999999999 Q51.48225 -65.03329149999999 53.346755625 -66.897797125 Q55.21135987500001 -68.762401375 57.794151375000006 -68.762401375 H74.5605 Q77.1432915 -68.762401375 79.007797125 -66.897797125 Q80.87240137500001 -65.03329149999999 80.87240137500001 -62.45049999999999 V-45.684151375 Q80.87240137500001 -43.10135987499999 79.007797125 -41.236755624999994 Q77.1432915 -39.372249999999994 74.5605 -39.372249999999994 H57.794151375000006 Z M57.794151375000006 -1.6975986249999835 Q55.21135987500001 -1.6975986249999835 53.346755625 -3.562202874999997 Q51.48225 -5.4267084999999895 51.48225 -8.009499999999989 V-24.775848624999995 Q51.48225 -27.358640124999994 53.346755625 -29.223244375 Q55.21135987500001 -31.087749999999993 57.794151375000006 -31.087749999999993 H74.5605 Q77.1432915 -31.087749999999993 79.007797125 -29.223244375 Q80.87240137500001 -27.358640124999994 80.87240137500001 -24.775848624999995 V-8.009499999999989 Q80.87240137500001 -5.4267084999999895 79.007797125 -3.562202874999997 Q77.1432915 -1.6975986249999835 74.5605 -1.6975986249999835 H57.794151375000006 Z"/></g><g id="Thin-S" transform="matrix(1 0 0 1 814.015 696)"><path d="M20.119500000000002 -39.372249999999994 Q18.371174625000002 -39.372249999999994 17.075538 -40.66788662499999 Q15.780000000000001 -41.963424624999995 15.780000000000001 -43.711749999999995 V-62.45049999999999 Q15.780000000000001 -64.19882537499998 17.075538 -65.494462 Q18.371174625000002 -66.78999999999999 20.119500000000002 -66.78999999999999 H38.85825 Q40.606575375 -66.78999999999999 41.902113375 -65.494462 Q43.19775 -64.19882537499998 43.19775 -62.45049999999999 V-43.711749999999995 Q43.19775 -41.963424624999995 41.902113375 -40.66788662499999 Q40.606575375 -39.372249999999994 38.85825 -39.372249999999994 H20.119500000000002 Z M20.119500000000002 -3.6699999999999875 Q18.371174625000002 -3.6699999999999875 17.075538 -4.965537999999995 Q15.780000000000001 -6.261174624999995 15.780000000000001 -8.009499999999989 V-26.74825 Q15.780000000000001 -28.496575374999992 17.075538 -29.792113375 Q18.371174625000002 -31.087749999999993 20.119500000000002 -31.087749999999993 H38.85825 Q40.606575375 -31.087749999999993 41.902113375 -29.792113375 Q43.19775 -28.496575374999992 43.19775 -26.74825 V-8.009499999999989 Q43.19775 -6.261174624999995 41.902113375 -4.965537999999995 Q40.606575375 -3.6699999999999875 38.85825 -3.6699999999999875 H20.119500000000002 Z M55.82175 -39.372249999999994 Q54.07342462500001 -39.372249999999994 52.777886624999994 -40.66788662499999 Q51.48225 -41.963424624999995 51.48225 -43.711749999999995 V-62.45049999999999 Q51.48225 -64.19882537499998 52.777886624999994 -65.494462 Q54.07342462500001 -66.78999999999999 55.82175 -66.78999999999999 H74.5605 Q76.308825375 -66.78999999999999 77.60446200000001 -65.494462 Q78.9 -64.19882537499998 78.9 -62.45049999999999 V-43.711749999999995 Q78.9 -41.963424624999995 77.60446200000001 -40.66788662499999 Q76.308825375 -39.372249999999994 74.5605 -39.372249999999994 H55.82175 Z M55.82175 -3.6699999999999875 Q54.07342462500001 -3.6699999999999875 52.777886624999994 -4.965537999999995 Q51.48225 -6.261174624999995 51.48225 -8.009499999999989 V-26.74825 Q51.48225 -28.496575374999992 52.777886624999994 -29.792113375 Q54.07342462500001 -31.087749999999993 55.82175 -31.087749999999993 H74.5605 Q76.308825375 -31.087749999999993 77.60446200000001 -29.792113375 Q78.9 -28.496575374999992 78.9 -26.74825 V-8.009499999999989 Q78.9 -6.261174624999995 77.60446200000001 -4.965537999999995 Q76.308825375 -3.6699999999999875 74.5605 -3.6699999999999875 H55.82175 Z"/></g><g id="Ultralight-S" transform="matrix(1 0 0 1 517.792 696)"><path d="M20.119500000000002 -39.372249999999994 Q18.87189375 -39.372249999999994 17.917696875 -40.32644687499999 Q16.9635 -41.280643749999996 16.9635 -42.52824999999999 V-62.45049999999999 Q16.9635 -63.698106249999995 17.917696875 -64.652303125 Q18.87189375 -65.6065 20.119500000000002 -65.6065 H40.04175 Q41.28935625 -65.6065 42.243553125 -64.652303125 Q43.19775 -63.698106249999995 43.19775 -62.45049999999999 V-42.52824999999999 Q43.19775 -41.280643749999996 42.243553125 -40.32644687499999 Q41.28935625 -39.372249999999994 40.04175 -39.372249999999994 H20.119500000000002 Z M20.119500000000002 -4.853499999999997 Q18.87189375 -4.853499999999997 17.917696875 -5.807696874999991 Q16.9635 -6.761893749999999 16.9635 -8.009499999999989 V-27.931749999999994 Q16.9635 -29.17935624999999 17.917696875 -30.133553125 Q18.87189375 -31.087749999999993 20.119500000000002 -31.087749999999993 H40.04175 Q41.28935625 -31.087749999999993 42.243553125 -30.133553125 Q43.19775 -29.17935624999999 43.19775 -27.931749999999994 V-8.009499999999989 Q43.19775 -6.761893749999999 42.243553125 -5.807696874999991 Q41.28935625 -4.853499999999997 40.04175 -4.853499999999997 H20.119500000000002 Z M54.63825 -39.372249999999994 Q53.39064375 -39.372249999999994 52.436446874999994 -40.32644687499999 Q51.48225 -41.280643749999996 51.48225 -42.52824999999999 V-62.45049999999999 Q51.48225 -63.698106249999995 52.436446874999994 -64.652303125 Q53.39064375 -65.6065 54.63825 -65.6065 H74.5605 Q75.80810625 -65.6065 76.762303125 -64.652303125 Q77.7165 -63.698106249999995 77.7165 -62.45049999999999 V-42.52824999999999 Q77.7165 -41.280643749999996 76.762303125 -40.32644687499999 Q75.80810625 -39.372249999999994 74.5605 -39.372249999999994 H54.63825 Z M54.63825 -4.853499999999997 Q53.39064375 -4.853499999999997 52.436446874999994 -5.807696874999991 Q51.48225 -6.761893749999999 51.48225 -8.009499999999989 V-27.931749999999994 Q51.48225 -29.17935624999999 52.436446874999994 -30.133553125 Q53.39064375 -31.087749999999993 54.63825 -31.087749999999993 H74.5605 Q75.80810625 -31.087749999999993 76.762303125 -30.133553125 Q77.7165 -29.17935624999999 77.7165 -27.931749999999994 V-8.009499999999989 Q77.7165 -6.761893749999999 76.762303125 -5.807696874999991 Q75.80810625 -4.853499999999997 74.5605 -4.853499999999997 H54.63825 Z"/></g></g></svg>