<svg xmlns="http://www.w3.org/2000/svg" version="1.1" width="3300" height="2000"><g id="Notes"><style>
    text {
      font-family: monospace;
      text-anchor: middle;
    }
    text.emphasis {
      font-weight:bold;
    }
    text.lanchor {
      text-anchor: start;
    }
  </style><rect height="2200" id="artboard" fill="white" width="3300" x="0" y="0"/><line id="" style="fill:none;stroke:black;stroke-width:0.5;" x1="263" x2="3036" y1="292" y2="292"/><text class="lanchor emphasis" transform="matrix(1 0 0 1 263 322)">Weight/Scale Variations</text><text transform="matrix(1 0 0 1 559.711 322)">Ultralight</text><text transform="matrix(1 0 0 1 856.422 322)">Thin</text><text transform="matrix(1 0 0 1 1153.13 322)">Light</text><text transform="matrix(1 0 0 1 1449.84 322)">Regular</text><text transform="matrix(1 0 0 1 1746.56 322)">Medium</text><text transform="matrix(1 0 0 1 2043.27 322)">Semibold</text><text transform="matrix(1 0 0 1 2339.98 322)">Bold</text><text transform="matrix(1 0 0 1 2636.69 322)">Heavy</text><text transform="matrix(1 0 0 1 2933.4 322)">Black</text><text id="template-version" style="text-anchor: end;" transform="matrix(1 0 0 1 3036 1933)">Template v.1.0</text><text class="lanchor" transform="matrix(1 0 0 1 263 726)">Small</text><text class="lanchor" transform="matrix(1 0 0 1 263 1156)">Medium</text><text class="lanchor" transform="matrix(1 0 0 1 263 1586)">Large</text></g><g id="Guides"><g id="H-reference" style="fill:#27AAE1;stroke:none;" transform="matrix(1 0 0 1 339 696)"><path d="M 54.9316 0 L 57.666 0 L 30.5664 -70.459 L 28.0762 -70.459 L 0.976562 0 L 3.66211 0 L 12.9395 -24.4629 L 45.7031 -24.4629 Z M 29.1992 -67.0898 L 29.4434 -67.0898 L 44.8242 -26.709 L 13.8184 -26.709 Z"/></g><line id="Baseline-S" style="fill:none;stroke:#27AAE1;opacity:1;stroke-width:0.577;" x1="263" x2="3036" y1="696" y2="696"/><line id="Capline-S" style="fill:none;stroke:#27AAE1;opacity:1;stroke-width:0.577;" x1="263" x2="3036" y1="625.541" y2="625.541"/><g id="H-reference" style="fill:#27AAE1;stroke:none;" transform="matrix(1 0 0 1 339 1126)"><path d="M 54.9316 0 L 57.666 0 L 30.5664 -70.459 L 28.0762 -70.459 L 0.976562 0 L 3.66211 0 L 12.9395 -24.4629 L 45.7031 -24.4629 Z M 29.1992 -67.0898 L 29.4434 -67.0898 L 44.8242 -26.709 L 13.8184 -26.709 Z"/></g><line id="Baseline-M" style="fill:none;stroke:#27AAE1;opacity:1;stroke-width:0.577;" x1="263" x2="3036" y1="1126" y2="1126"/><line id="Capline-M" style="fill:none;stroke:#27AAE1;opacity:1;stroke-width:0.577;" x1="263" x2="3036" y1="1055.54" y2="1055.54"/><g id="H-reference" style="fill:#27AAE1;stroke:none;" transform="matrix(1 0 0 1 339 1556)"><path d="M 54.9316 0 L 57.666 0 L 30.5664 -70.459 L 28.0762 -70.459 L 0.976562 0 L 3.66211 0 L 12.9395 -24.4629 L 45.7031 -24.4629 Z M 29.1992 -67.0898 L 29.4434 -67.0898 L 44.8242 -26.709 L 13.8184 -26.709 Z"/></g><line id="Baseline-L" style="fill:none;stroke:#27AAE1;opacity:1;stroke-width:0.577;" x1="263" x2="3036" y1="1556" y2="1556"/><line id="Capline-L" style="fill:none;stroke:#27AAE1;opacity:1;stroke-width:0.577;" x1="263" x2="3036" y1="1485.54" y2="1485.54"/><rect height="119.336" id="left-margin" style="fill:darkred;stroke:none;opacity:0.4;" width="12.4512" x="1394.06" y="1030.79"/><rect height="119.336" id="right-margin" style="fill:darkgreen;stroke:none;opacity:0.4;" width="12.4512" x="1502.5112" y="1030.79"/><rect x="1406.5112" y="1045" width="96" height="96" fill="none" stroke="blue" stroke-dasharray="5"/><rect x="1394.06" y="1030.79" width="120.9024" height="119.336" fill="none" stroke="blue"/></g><g id="Symbols"><g id="Bold-L" transform="matrix(1 0 0 1 2266 1556)"><path d="M77.34146625 -12.171249999999986 Q70.46625 -12.171249999999986 65.62875 -17.067283749999987 Q60.791250000000005 -21.963317499999988 60.791250000000005 -28.838533749999996 Q60.791250000000005 -35.713749999999976 65.68728375 -40.55124999999998 Q70.5833175 -45.38874999999999 77.45853375 -45.38874999999999 Q84.33375000000001 -45.38874999999999 89.17125 -40.49271624999997 Q94.00875 -35.596682499999986 94.00875 -28.721466249999978 Q94.00875 -21.846249999999984 89.11271624999999 -17.008749999999978 Q84.2166825 -12.171249999999986 77.34146625 -12.171249999999986 Z M42.73125 -1.206249999999983 Q38.20335 -6.916112499999983 35.710425 -13.965478749999974 Q33.2175 -21.015006249999985 33.2175 -28.779999999999987 Q33.2175 -47.35067874999997 46.0178475 -60.237133749999984 Q58.81835625 -73.12374999999999 77.3809725 -73.12374999999999 Q95.94375000000001 -73.12374999999999 108.84375 -60.237133749999984 Q121.74375 -47.35067874999997 121.74375 -28.81628124999999 Q121.74375 -20.878749999999982 119.16375000000001 -14.025624999999977 Q116.58375000000001 -7.172499999999985 112.06875000000001 -1.3674999999999784 Q110.44496249999999 0.5675000000000239 107.54810625 0.6481250000000216 Q104.65125 0.7287500000000193 102.74979 -1.1727099999999808 Q100.94250000000001 -2.9799999999999756 100.861875 -5.7212499999999835 Q100.78125 -8.462499999999977 102.39375 -11.042499999999976 Q105.29625 -14.679654999999983 106.7475 -19.114029999999985 Q108.19875 -23.54840499999999 108.19875 -28.779999999999987 Q108.19875 -41.71031499999998 99.27082125000001 -50.64453249999998 Q90.34289249999999 -59.578749999999985 77.42144625 -59.578749999999985 Q64.5 -59.578749999999985 55.550625000000004 -50.64453249999998 Q46.60125 -41.71031499999998 46.60125 -28.779999999999987 Q46.60125 -23.781249999999986 48.041051249999995 -19.266249999999985 Q49.48069125000001 -14.751249999999985 52.40625 -11.042499999999976 Q54.018750000000004 -8.462499999999977 53.969085 -5.741406249999983 Q53.91958125 -3.0203124999999886 51.9225 -1.0449999999999875 Q49.987500000000004 0.8900000000000148 47.165625 0.809375000000017 Q44.34375 0.7287500000000193 42.73125 -1.206249999999983 Z M23.05875 18.305000000000007 Q14.835 8.79125000000002 10.15875 -3.2207462499999906 Q5.4825 -15.232742499999986 5.4825 -28.727916249999993 Q5.4825 -43.56436749999999 11.11125375 -56.72623749999998 Q16.7400075 -69.88810749999999 26.51595 -79.66404999999997 Q36.2918925 -89.43999249999999 49.465695000000004 -95.06874624999998 Q62.6394975 -100.69749999999999 77.43724875 -100.69749999999999 Q92.235 -100.69749999999999 105.37155375 -95.06874624999998 Q118.5081075 -89.43999249999999 128.28405 -79.66404999999997 Q138.05999250000002 -69.88810749999999 143.68874625 -56.72623749999998 Q149.3175 -43.56436749999999 149.3175 -28.727916249999993 Q149.3175 -15.297564999999992 144.64125 -3.253157499999972 Q139.965 8.79125000000002 131.709645 18.101502500000038 Q129.9675 20.24000000000001 127.065 20.24000000000001 Q124.16250000000001 20.24000000000001 122.27652 18.35402000000002 Q120.45375 16.53125000000003 120.373125 13.79000000000002 Q120.2925 11.048750000000013 122.06625 8.630000000000024 Q128.83875 0.8900000000000148 132.38625 -8.534901249999976 Q135.93375 -17.959963749999986 135.93375 -28.732753749999986 Q135.93375 -53.12874999999998 118.80142125 -70.22124999999998 Q101.66925375 -87.31374999999998 77.36017125 -87.31374999999998 Q53.05125 -87.31374999999998 35.95875 -70.19303124999999 Q18.86625 -53.07231249999998 18.86625 -28.779999999999987 Q18.86625 -17.991246249999975 22.494375 -8.43831249999998 Q26.122500000000002 1.1146212500000274 32.73375 8.79125000000002 Q34.34625 11.189037500000012 34.3214175 13.86014375000002 Q34.296585 16.53125000000003 32.41125 18.46625000000003 Q30.490923750000004 20.401250000000033 27.66163125 20.320625000000007 Q24.8325 20.24000000000001 23.05875 18.305000000000007 Z"/></g><g id="Semibold-L" transform="matrix(1 0 0 1 1970.27 1556)"><path d="M77.36694375 -13.783588749999993 Q71.167365 -13.783588749999993 66.78539625 -18.19861374999998 Q62.403588750000004 -22.613477499999988 62.403588750000004 -28.81305624999999 Q62.403588750000004 -35.01263499999999 66.81861375000001 -39.39460374999999 Q71.23347749999999 -43.77641124999998 77.43305624999999 -43.77641124999998 Q83.63263500000001 -43.77641124999998 88.01460375 -39.36138624999998 Q92.39641125 -34.94652249999997 92.39641125 -28.74694374999997 Q92.39641125 -22.54736499999997 87.98138625 -18.165396249999986 Q83.56652249999999 -13.783588749999993 77.36694375 -13.783588749999993 Z M44.90441625 -2.327904999999987 Q40.5224475 -7.798633749999993 38.061772500000004 -14.517437499999971 Q35.6010975 -21.236241249999978 35.6010975 -28.779999999999987 Q35.6010975 -46.287396249999986 47.743706249999995 -58.47870249999998 Q59.886314999999996 -70.67016999999998 77.3893575 -70.67016999999998 Q94.89223875 -70.67016999999998 107.09112375 -58.47870249999998 Q119.29017 -46.287396249999986 119.29017 -28.800478749999968 Q119.29017 -21.15916374999999 116.7801525 -14.551461249999974 Q114.27029625 -7.943597499999981 109.89558375 -2.4190112499999685 Q108.41692125 -0.6944424999999796 105.86804250000002 -0.6488087499999864 Q103.319325 -0.6031749999999789 101.6136225 -2.30887749999998 Q100.031115 -3.8913849999999854 99.98564250000001 -6.282077499999971 Q99.94000875 -8.672769999999971 101.41222125 -10.902212499999976 Q104.38486499999999 -14.570488749999981 105.90625875 -19.07500749999997 Q107.4276525 -23.579526249999986 107.4276525 -28.779999999999987 Q107.4276525 -41.34653499999999 98.70064125 -50.077093749999975 Q89.97363 -58.80765249999999 77.41209375 -58.80765249999999 Q64.8505575 -58.80765249999999 56.111452500000006 -50.077093749999975 Q47.3723475 -41.34653499999999 47.3723475 -28.779999999999987 Q47.3723475 -23.711106249999986 48.887291250000004 -19.16111499999998 Q50.40207375000001 -14.610962499999985 53.38777875 -10.902212499999976 Q54.85999125 -8.672769999999971 54.831933750000005 -6.293526249999985 Q54.80387625000001 -3.9141212499999796 53.044155 -2.1666549999999916 Q51.319425 -0.44192499999998347 48.848107500000005 -0.5225499999999812 Q46.37679 -0.6031749999999789 44.90441625 -2.327904999999987 Z M25.8628875 16.622517500000015 Q17.8494075 7.459325000000007 13.278453749999999 -4.097462499999978 Q8.70733875 -15.65424999999999 8.70733875 -28.750652499999987 Q8.70733875 -42.955326249999985 14.097120000000002 -55.512669999999986 Q19.4870625 -68.07001374999999 28.798605000000002 -77.38139499999998 Q38.109986250000006 -86.69293749999997 50.673941250000006 -92.08287999999999 Q63.2380575 -97.47266124999999 77.4209625 -97.47266124999999 Q91.60402875 -97.47266124999999 104.14702125000001 -92.08287999999999 Q116.69001375 -86.69293749999997 126.001395 -77.38139499999998 Q135.3129375 -68.07001374999999 140.70288 -55.512669999999986 Q146.09266125 -42.955326249999985 146.09266125 -28.750652499999987 Q146.09266125 -15.691014999999979 141.52154625 -4.115844999999979 Q136.9505925 7.459325000000007 128.91921375 16.50754625000002 Q127.3736325 18.34724750000001 124.82169 18.34724750000001 Q122.2697475 18.34724750000001 120.5727525 16.650252500000022 Q118.9815375 15.059037500000017 118.936065 12.633353750000026 Q118.89043124999999 10.207508750000017 120.45391125 8.139316250000007 Q127.15626750000001 0.6095862500000067 130.73875875000002 -8.713727499999976 Q134.32141125 -18.037202499999992 134.32141125 -28.753232499999967 Q134.32141125 -52.49777874999998 117.69718125 -69.09959499999998 Q101.07279 -85.70141124999998 77.37758625000001 -85.70141124999998 Q53.682221250000005 -85.70141124999998 37.080405 -69.08363124999998 Q20.47858875 -52.465851249999986 20.47858875 -28.779999999999987 Q20.47858875 -18.054778749999983 24.10671375 -8.659063749999987 Q27.73483875 0.7364900000000318 34.34608875 8.230422500000032 Q35.8184625 10.286682500000012 35.80443375 12.672860000000014 Q35.790405 15.059037500000017 34.0937325 16.78376750000001 Q32.3773875 18.508497500000004 29.901877499999998 18.427872500000007 Q27.4263675 18.34724750000001 25.8628875 16.622517500000015 Z"/></g><g id="Medium-L" transform="matrix(1 0 0 1 1674.31 1556)"><path d="M77.38597125 -14.993124999999978 Q71.69320125 -14.993124999999978 67.6530825 -19.047111249999972 Q63.613125000000004 -23.101097499999995 63.613125000000004 -28.79402874999998 Q63.613125000000004 -34.48679874999998 67.66711125 -38.52691749999998 Q71.7210975 -42.56687499999998 77.41402875 -42.56687499999998 Q83.10679875 -42.56687499999998 87.1469175 -38.51288874999999 Q91.186875 -34.45890249999998 91.186875 -28.76597124999998 Q91.186875 -23.073201249999983 87.13288875 -19.033082499999978 Q83.0789025 -14.993124999999978 77.38597125 -14.993124999999978 Z M46.53465375 -3.1693074999999737 Q42.26185125 -8.460726249999993 39.82536375 -14.931366249999982 Q37.38887625 -21.402006249999985 37.38887625 -28.779999999999987 Q37.38887625 -45.48985374999998 49.03822125 -57.15967749999999 Q60.68756625 -68.82966249999998 77.395485 -68.82966249999998 Q94.10340375 -68.82966249999998 105.77645249999999 -57.15967749999999 Q117.4496625 -45.48985374999998 117.4496625 -28.788707499999973 Q117.4496625 -21.369433749999985 114.99237375 -14.945717499999986 Q112.53492374999999 -8.522162499999979 108.26534625000001 -3.2078462499999887 Q106.8955275 -1.6409799999999848 104.60787375 -1.621629999999982 Q102.32022 -1.602279999999979 100.761255 -3.1612449999999797 Q99.34757625 -4.574923749999982 99.32822625000001 -6.702778749999979 Q99.3090375 -8.83063374999999 100.676115 -10.797077499999972 Q103.70132625000001 -14.488734999999977 105.2752875 -19.04582124999999 Q106.8490875 -23.602907499999986 106.8490875 -28.779999999999987 Q106.8490875 -41.07386124999998 98.27300625000001 -49.65155499999997 Q89.69676375 -58.22908749999998 77.40516 -58.22908749999998 Q65.113395 -58.22908749999998 56.53215375 -49.65155499999997 Q47.9509125 -41.07386124999998 47.9509125 -28.779999999999987 Q47.9509125 -23.65853874999999 49.52197125 -19.08226374999998 Q51.093191250000004 -14.505827499999981 54.123885 -10.797077499999972 Q55.4909625 -8.83063374999999 55.47919125000001 -6.7076162499999725 Q55.46725875 -4.584598749999984 53.8855575 -3.0080574999999783 Q52.31853 -1.4410299999999836 50.110211250000006 -1.5216549999999813 Q47.90173125 -1.602279999999979 46.53465375 -3.1693074999999737 Z M27.96639375 15.36041375000002 Q20.11061625 6.460220000000021 15.61851375 -4.755201249999985 Q11.12625 -15.97062249999999 11.12625 -28.767583749999986 Q11.12625 -42.498666249999985 16.336882499999998 -54.60241374999998 Q21.54767625 -66.70632249999998 30.5107575 -75.66924249999998 Q39.4736775 -84.63232374999998 51.580327499999996 -89.84311749999998 Q63.686977500000005 -95.05374999999998 77.40886875 -95.05374999999998 Q91.13076000000001 -95.05374999999998 103.22854125 -89.84311749999998 Q115.3263225 -84.63232374999998 124.2892425 -75.66924249999998 Q133.25232375 -66.70632249999998 138.4631175 -54.60241374999998 Q143.67375 -42.498666249999985 143.67375 -28.767583749999986 Q143.67375 -15.986102499999987 139.18164750000003 -4.762941249999983 Q134.68938375000002 6.460220000000021 126.82602750000001 15.311877500000008 Q125.42799 16.927441250000015 123.13888500000002 16.927441250000015 Q120.84994125 16.927441250000015 119.294685 15.37218500000003 Q117.87729750000001 13.95479750000004 117.85794750000001 11.765667500000035 Q117.83875875000001 9.576537500000029 119.244375 7.771182500000009 Q125.89416375 0.3993162500000267 129.50310000000002 -8.847887499999985 Q133.111875 -18.09509124999998 133.111875 -28.768712499999978 Q133.111875 -52.02450999999998 116.86867875000002 -68.25819249999998 Q100.6254825 -84.491875 77.39048625 -84.491875 Q54.15549 -84.491875 37.9218075 -68.25141999999998 Q21.688125 -52.01112624999999 21.688125 -28.779999999999987 Q21.688125 -18.102508749999984 25.31625 -8.82482874999998 Q28.944375 0.4530124999999998 35.555625 7.809721250000024 Q36.9227025 9.610077500000017 36.91673625 11.782437500000015 Q36.910931250000004 13.95479750000004 35.35583625 15.521663750000016 Q33.79235625 17.08869125000001 31.582263750000003 17.008066250000013 Q29.37201 16.927441250000015 27.96639375 15.36041375000002 Z"/></g><g id="Regular-L" transform="matrix(1 0 0 1 1378.56 1556)"><path d="M77.4 -15.879999999999981 Q72.07875 -15.879999999999981 68.289375 -19.669374999999988 Q64.5 -23.45874999999998 64.5 -28.779999999999987 Q64.5 -34.10124999999998 68.289375 -37.890624999999986 Q72.07875 -41.67999999999998 77.4 -41.67999999999998 Q82.72125 -41.67999999999998 86.510625 -37.890624999999986 Q90.3 -34.10124999999998 90.3 -28.779999999999987 Q90.3 -23.45874999999998 86.510625 -19.669374999999988 Q82.72125 -15.879999999999981 77.4 -15.879999999999981 Z M47.730000000000004 -3.7862499999999812 Q43.5375 -8.946249999999978 41.11875 -15.234999999999985 Q38.7 -21.52374999999998 38.7 -28.779999999999987 Q38.7 -44.90499999999999 49.987500000000004 -56.19249999999998 Q61.275 -67.47999999999999 77.4 -67.47999999999999 Q93.525 -67.47999999999999 104.8125 -56.19249999999998 Q116.10000000000001 -44.90499999999999 116.10000000000001 -28.779999999999987 Q116.10000000000001 -21.52374999999998 113.68125 -15.234999999999985 Q111.2625 -8.946249999999978 107.07000000000001 -3.7862499999999812 Q105.78 -2.3349999999999795 103.68375 -2.3349999999999795 Q101.5875 -2.3349999999999795 100.13625 -3.7862499999999812 Q98.84625 -5.0762499999999875 98.84625 -7.011249999999976 Q98.84625 -8.946249999999978 100.13625 -10.719999999999985 Q103.2 -14.42874999999998 104.8125 -19.024374999999978 Q106.425 -23.619999999999976 106.425 -28.779999999999987 Q106.425 -40.87374999999999 97.95937500000001 -49.33937499999999 Q89.49375 -57.80499999999998 77.4 -57.80499999999998 Q65.30625 -57.80499999999998 56.840625 -49.33937499999999 Q48.375 -40.87374999999999 48.375 -28.779999999999987 Q48.375 -23.619999999999976 49.987500000000004 -19.024374999999978 Q51.6 -14.42874999999998 54.66375 -10.719999999999985 Q55.95375 -8.946249999999978 55.95375 -7.011249999999976 Q55.95375 -5.0762499999999875 54.502500000000005 -3.624999999999986 Q53.05125 -2.173749999999984 51.035625 -2.254374999999982 Q49.02 -2.3349999999999795 47.730000000000004 -3.7862499999999812 Z M29.50875 14.43500000000003 Q21.76875 5.7275000000000205 17.334375 -5.237499999999983 Q12.9 -16.202499999999986 12.9 -28.779999999999987 Q12.9 -42.16374999999998 17.979375 -53.93499999999999 Q23.05875 -65.70624999999998 31.76625 -74.41375 Q40.47375 -83.12124999999997 52.245000000000005 -88.20062499999997 Q64.01625 -93.27999999999999 77.4 -93.27999999999999 Q90.78375 -93.27999999999999 102.555 -88.20062499999997 Q114.32625 -83.12124999999997 123.03375 -74.41375 Q131.74125 -65.70624999999998 136.820625 -53.93499999999999 Q141.9 -42.16374999999998 141.9 -28.779999999999987 Q141.9 -16.202499999999986 137.46562500000002 -5.237499999999983 Q133.03125 5.7275000000000205 125.29125 14.43500000000003 Q124.00125 15.886250000000018 121.905 15.886250000000018 Q119.80875 15.886250000000018 118.3575 14.43500000000003 Q117.06750000000001 13.14500000000001 117.06750000000001 11.12937500000001 Q117.06750000000001 9.11375000000001 118.3575 7.501250000000027 Q124.96875 0.24500000000000455 128.596875 -8.946249999999978 Q132.225 -18.13749999999999 132.225 -28.779999999999987 Q132.225 -51.67749999999998 116.26125 -67.64124999999999 Q100.2975 -83.60499999999999 77.4 -83.60499999999999 Q54.502500000000005 -83.60499999999999 38.53875 -67.64124999999999 Q22.575 -51.67749999999998 22.575 -28.779999999999987 Q22.575 -18.13749999999999 26.203125 -8.946249999999978 Q29.83125 0.24500000000000455 36.4425 7.501250000000027 Q37.7325 9.11375000000001 37.7325 11.12937500000001 Q37.7325 13.14500000000001 36.28125 14.596250000000026 Q34.83 16.047500000000014 32.814375 15.966875000000016 Q30.798750000000002 15.886250000000018 29.50875 14.43500000000003 Z"/></g><g id="Light-L" transform="matrix(1 0 0 1 1082.77 1556)"><path d="M77.4 -19.10516124999998 Q73.4432475 -19.10516124999998 70.58428500000001 -21.964284999999975 Q67.72516125 -24.82324749999998 67.72516125 -28.779999999999987 Q67.72516125 -32.73675249999998 70.58428500000001 -35.595714999999984 Q73.4432475 -38.45483874999999 77.4 -38.45483874999999 Q81.3567525 -38.45483874999999 84.215715 -35.595714999999984 Q87.07483875000001 -32.73675249999998 87.07483875000001 -28.779999999999987 Q87.07483875000001 -24.82324749999998 84.215715 -21.964284999999975 Q81.3567525 -19.10516124999998 77.4 -19.10516124999998 Z M50.831160000000004 -5.212828749999986 Q46.70074125000001 -9.938582499999981 44.312951250000005 -15.917248749999985 Q41.925161249999995 -21.895914999999988 41.925161249999995 -28.779999999999987 Q41.925161249999995 -43.54050249999999 52.282410000000006 -53.89758999999998 Q62.6394975 -64.25483874999999 77.4 -64.25483874999999 Q92.1605025 -64.25483874999999 102.51759000000001 -53.89758999999998 Q112.87483875000001 -43.54050249999999 112.87483875000001 -28.779999999999987 Q112.87483875000001 -21.895914999999988 110.48704875000001 -15.948208749999978 Q108.09925875 -10.000663749999987 103.96884000000001 -5.212828749999986 Q102.98892375000001 -4.133743749999979 101.39545125 -4.133743749999979 Q99.80181750000001 -4.133743749999979 98.70531749999999 -5.223148749999979 Q97.72975500000001 -6.192744999999974 97.72975500000001 -7.662538749999982 Q97.72975500000001 -9.132332499999976 98.7717525 -10.40991624999998 Q102.021585 -14.118666249999976 103.78904625000001 -18.796206249999983 Q105.55666875 -23.473746249999976 105.55666875 -28.779999999999987 Q105.55666875 -40.515613749999986 97.34904375 -48.72614124999998 Q89.14141875000001 -56.93666874999998 77.40983625 -56.93666874999998 Q65.678415 -56.93666874999998 57.460792500000004 -48.72614124999998 Q49.24333125 -40.515613749999986 49.24333125 -28.779999999999987 Q49.24333125 -23.495998749999984 51.01095375 -18.807332499999987 Q52.778415 -14.118666249999976 56.0282475 -10.40991624999998 Q57.070245 -9.132332499999976 57.101205 -7.693498749999975 Q57.132165 -6.254664999999974 55.99099875 -5.113498749999977 Q54.841608750000006 -3.972493749999984 53.3263425 -4.0219974999999835 Q51.811076250000006 -4.071662499999974 50.831160000000004 -5.212828749999986 Z M32.60991 13.008421250000026 Q24.92296125 4.646480000000025 20.524061250000003 -5.964092499999978 Q16.12516125 -16.57466499999998 16.12516125 -28.779999999999987 Q16.12516125 -41.48150124999998 20.95653375 -52.66354374999999 Q25.787745 -63.84558624999998 34.06116 -72.11883999999998 Q42.334413749999996 -80.39225499999998 53.51645625 -85.22346624999997 Q64.69849875 -90.05483874999999 77.4 -90.05483874999999 Q90.10150125 -90.05483874999999 101.28354375 -85.22346624999997 Q112.46558625 -80.39225499999998 120.73884000000001 -72.11883999999998 Q129.012255 -63.84558624999998 133.84346625 -52.66354374999999 Q138.67483875000002 -41.48150124999998 138.67483875000002 -28.779999999999987 Q138.67483875000002 -16.57466499999998 134.27593875000002 -5.964253749999969 Q129.87703875 4.646157500000015 122.19009000000001 13.008421250000026 Q121.21017375000001 14.087506250000018 119.61009000000001 14.087506250000018 Q118.01000625 14.087506250000018 116.93092125000001 13.008421250000026 Q115.95100500000001 12.028505000000024 115.98212625000001 10.478086250000018 Q116.01308625 8.927667500000013 116.9930025 7.749413750000031 Q123.790335 0.5550837500000227 127.57342125000001 -8.729207499999987 Q131.35666875 -18.013498749999982 131.35666875 -28.779999999999987 Q131.35666875 -51.31388124999998 115.64704875000001 -67.025275 Q99.93742875000001 -82.73666874999998 77.40596624999999 -82.73666874999998 Q54.874665 -82.73666874999998 39.1589175 -67.025275 Q23.44333125 -51.31388124999998 23.44333125 -28.779999999999987 Q23.44333125 -17.997051249999984 27.25753875 -8.720983749999974 Q31.071746250000004 0.5550837500000227 37.86907875 7.749413750000031 Q38.78691375 9.005873750000035 38.848995 10.486148750000012 Q38.910915 11.96658500000001 37.774263749999996 13.113072500000015 Q36.6995325 14.186836250000027 35.14476 14.137171250000023 Q33.58982625 14.087506250000018 32.60991 13.008421250000026 Z"/></g><g id="Thin-L" transform="matrix(1 0 0 1 787.282 1556)"><path d="M77.4 -22.329999999999984 Q74.80758375 -22.329999999999984 72.87871125000001 -24.25871124999999 Q70.95 -26.187583749999988 70.95 -28.779999999999987 Q70.95 -31.372416249999986 72.87871125000001 -33.30128874999998 Q74.80758375 -35.22999999999999 77.4 -35.22999999999999 Q79.99241625 -35.22999999999999 81.92128875 -33.30128874999998 Q83.85000000000001 -31.372416249999986 83.85000000000001 -28.779999999999987 Q83.85000000000001 -26.187583749999988 81.92128875 -24.25871124999999 Q79.99241625 -22.329999999999984 77.4 -22.329999999999984 Z M53.93183625 -6.63908499999998 Q49.86349875 -10.930914999999985 47.50666875 -16.59933624999998 Q45.15 -22.26791874999998 45.15 -28.779999999999987 Q45.15 -42.17616624999998 54.57683625000001 -51.60316374999998 Q64.00383375 -61.02999999999999 77.4 -61.02999999999999 Q90.79616625 -61.02999999999999 100.22316375 -51.60316374999998 Q109.65 -42.17616624999998 109.65 -28.779999999999987 Q109.65 -22.26791874999998 107.29333125000001 -16.661417499999985 Q104.93650125 -11.054916249999977 100.86816375 -6.63908499999998 Q100.19833125 -5.9321649999999835 99.10747500000001 -5.9321649999999835 Q98.01645750000002 -5.9321649999999835 97.2747075 -6.659724999999995 Q96.6135825 -7.308917499999978 96.6135825 -8.313666249999983 Q96.6135825 -9.318414999999987 97.40741625 -10.099832499999977 Q100.84333125 -13.808582499999986 102.765915 -18.568037499999974 Q104.68849875000001 -23.327653749999982 104.68849875000001 -28.779999999999987 Q104.68849875000001 -40.157477499999985 96.73871249999999 -48.11290749999998 Q88.78908750000001 -56.06849874999999 77.41983375 -56.06849874999999 Q66.05041875 -56.06849874999999 58.080960000000005 -48.11290749999998 Q50.11150125 -40.157477499999985 50.11150125 -28.779999999999987 Q50.11150125 -23.371997499999978 52.034085000000005 -18.59028999999998 Q53.956668750000006 -13.808582499999986 57.39258375 -10.099832499999977 Q58.186417500000005 -9.318414999999987 58.24849875 -8.375586249999984 Q58.310418750000004 -7.432918749999985 57.47933625 -6.601836249999991 Q56.63180625 -5.770914999999974 55.616737500000006 -5.78945874999998 Q54.60166875 -5.808002499999986 53.93183625 -6.63908499999998 Z M35.710586250000006 11.582165000000003 Q28.07685 3.56546000000003 23.713425 -6.690684999999974 Q19.35 -16.946668749999986 19.35 -28.779999999999987 Q19.35 -40.799413749999985 23.933208750000002 -51.39224874999998 Q28.516417500000003 -61.98508374999999 36.35558625 -69.82441374999999 Q44.19491625 -77.66358249999999 54.78775125 -82.24679124999999 Q65.38058625000001 -86.82999999999998 77.4 -86.82999999999998 Q89.41941375 -86.82999999999998 100.01224875 -82.24679124999999 Q110.60508375 -77.66358249999999 118.44441375 -69.82441374999999 Q126.28358250000001 -61.98508374999999 130.86679125 -51.39224874999998 Q135.45000000000002 -40.799413749999985 135.45000000000002 -28.779999999999987 Q135.45000000000002 -16.946668749999986 131.086575 -6.690846249999993 Q126.72315 3.56513750000002 119.08941375 11.582165000000003 Q118.41958125000001 12.289085000000028 117.31566375 12.289085000000028 Q116.211585 12.289085000000028 115.504665 11.582165000000003 Q114.8348325 10.91233250000002 114.89691375 9.826958750000017 Q114.95883375 8.741585000000015 115.62866625000001 7.997416250000015 Q122.61208125 0.8651675000000125 126.55029 -8.512164999999982 Q130.48849875 -17.889497499999976 130.48849875 -28.779999999999987 Q130.48849875 -50.95026249999998 115.03284749999999 -66.40946124999999 Q99.5773575 -81.86849874999999 77.41209375 -81.86849874999999 Q55.246668750000005 -81.86849874999999 39.779085 -66.40946124999999 Q24.311501250000003 -50.95026249999998 24.311501250000003 -28.779999999999987 Q24.311501250000003 -17.856441249999975 28.31179125 -8.495717499999984 Q32.31208125 0.8651675000000125 39.295335 7.997416250000015 Q39.84116625 8.89799750000003 39.9651675 9.843083750000034 Q40.089168750000006 10.788331250000027 39.266955 11.630056250000024 Q38.568903750000004 12.326333750000032 37.474661250000004 12.307790000000011 Q36.380418750000004 12.289085000000028 35.710586250000006 11.582165000000003 Z"/></g><g id="Ultralight-L" transform="matrix(1 0 0 1 491.205 1556)"><path d="M77.4 -24.264999999999986 Q75.62625 -24.264999999999986 74.25562500000001 -25.635624999999976 Q72.885 -27.00624999999998 72.885 -28.779999999999987 Q72.885 -30.55374999999998 74.25562500000001 -31.924374999999984 Q75.62625 -33.29499999999999 77.4 -33.29499999999999 Q79.17375 -33.29499999999999 80.544375 -31.924374999999984 Q81.915 -30.55374999999998 81.915 -28.779999999999987 Q81.915 -27.00624999999998 80.544375 -25.635624999999976 Q79.17375 -24.264999999999986 77.4 -24.264999999999986 Z M55.792500000000004 -7.494999999999976 Q51.761250000000004 -11.526249999999976 49.423125 -17.008749999999978 Q47.085 -22.49124999999998 47.085 -28.779999999999987 Q47.085 -41.35749999999999 55.95375 -50.22624999999998 Q64.8225 -59.094999999999985 77.4 -59.094999999999985 Q89.9775 -59.094999999999985 98.84625 -50.22624999999998 Q107.715 -41.35749999999999 107.715 -28.779999999999987 Q107.715 -22.49124999999998 105.376875 -17.089374999999976 Q103.03875000000001 -11.687499999999986 99.00750000000001 -7.494999999999976 Q98.52375 -7.011249999999976 97.73443125 -7.011249999999976 Q96.94527375 -7.011249999999976 96.4162125 -7.5219287499999865 Q95.94375000000001 -7.978749999999977 95.94375000000001 -8.704374999999985 Q95.94375000000001 -9.429999999999978 96.58875 -9.913749999999979 Q100.13625 -13.622499999999988 102.151875 -18.43113624999998 Q104.1675 -23.23993374999999 104.1675 -28.779999999999987 Q104.1675 -39.94253124999999 96.37251375 -47.744934999999984 Q88.57768875 -55.547499999999985 77.42563875 -55.547499999999985 Q66.27375 -55.547499999999985 58.453125 -47.744934999999984 Q50.6325 -39.94253124999999 50.6325 -28.779999999999987 Q50.6325 -23.297499999999985 52.648125 -18.45999999999998 Q54.66375 -13.622499999999988 58.21125 -9.913749999999979 Q58.85625 -9.429999999999978 58.936875 -8.784999999999982 Q59.0175 -8.139999999999986 58.3725 -7.494999999999976 Q57.70605375 -6.84999999999998 56.99107125 -6.84999999999998 Q56.276250000000005 -6.84999999999998 55.792500000000004 -7.494999999999976 Z M37.57125 10.726250000000022 Q29.96928 2.9169125000000236 25.62714 -7.126543749999982 Q21.285 -17.169999999999987 21.285 -28.779999999999987 Q21.285 -40.389999999999986 25.719375 -50.62937499999998 Q30.153750000000002 -60.86874999999998 37.7325 -68.44749999999999 Q45.31125 -76.02624999999998 55.550625000000004 -80.460625 Q65.79 -84.89499999999998 77.4 -84.89499999999998 Q89.01 -84.89499999999998 99.249375 -80.460625 Q109.48875 -76.02624999999998 117.06750000000001 -68.44749999999999 Q124.64625000000001 -60.86874999999998 129.080625 -50.62937499999998 Q133.51500000000001 -40.389999999999986 133.51500000000001 -28.779999999999987 Q133.51500000000001 -17.169999999999987 129.17286000000001 -7.126866249999978 Q124.83072 2.9164287500000228 117.22875 10.726250000000022 Q116.745 11.210000000000008 115.93875 11.210000000000008 Q115.13250000000001 11.210000000000008 114.64875 10.726250000000022 Q114.165 10.242500000000007 114.245625 9.43625000000003 Q114.32625 8.630000000000024 114.81 8.146250000000009 Q121.905 1.0512500000000102 125.93625 -8.38187499999998 Q129.9675 -17.814999999999984 129.9675 -28.779999999999987 Q129.9675 -50.73225249999997 114.66439125 -66.03987624999999 Q99.3612825 -81.34749999999998 77.41564125 -81.34749999999998 Q55.47 -81.34749999999998 40.151250000000005 -66.03987624999999 Q24.8325 -50.73225249999997 24.8325 -28.779999999999987 Q24.8325 -17.77226874999998 28.944375 -8.360428749999983 Q33.05625 1.0512500000000102 40.151250000000005 8.146250000000009 Q40.47375 8.833336250000002 40.635 9.457212500000026 Q40.79625 10.081250000000011 40.162698750000004 10.740278750000016 Q39.69055875 11.210000000000008 38.87269875 11.210000000000008 Q38.055 11.210000000000008 37.57125 10.726250000000022 Z"/></g><g id="Bold-M" transform="matrix(1 0 0 1 2281.8 1126)"><path d="M59.98125 -16.35499999999999 Q54.25 -16.35499999999999 50.1875 -20.436249999999987 Q46.125 -24.517624999999995 46.125 -30.248749999999987 Q46.125 -35.97999999999999 50.20625 -40.04249999999999 Q54.287625 -44.10499999999999 60.01875 -44.10499999999999 Q65.75 -44.10499999999999 69.8125 -40.02374999999999 Q73.875 -35.942374999999984 73.875 -30.211249999999993 Q73.875 -24.47999999999999 69.79375 -20.41749999999999 Q65.712375 -16.35499999999999 59.98125 -16.35499999999999 Z M31.125 -9.22999999999999 Q27.875 -13.60499999999999 26.0625 -18.907749999999993 Q24.25 -24.210624999999993 24.25 -30.22999999999999 Q24.25 -45.125874999999986 34.67275 -55.55287499999999 Q45.095625 -65.97999999999999 59.98525 -65.97999999999999 Q74.875 -65.97999999999999 85.3125 -55.55287499999999 Q95.75 -45.125874999999986 95.75 -30.22999999999999 Q95.75 -24.22999999999999 93.9375 -18.91749999999999 Q92.125 -13.60499999999999 88.875 -9.22999999999999 Q87.25 -7.10499999999999 84.375 -7.04249999999999 Q81.5 -6.97999999999999 79.401 -9.078999999999994 Q77.625 -10.85499999999999 77.4375 -13.66749999999999 Q77.25 -16.47999999999999 78.875 -19.22999999999999 Q80.375 -21.674499999999995 81.125 -24.424499999999995 Q81.875 -27.174499999999995 81.875 -30.22999999999999 Q81.875 -39.25349999999999 75.454125 -45.67924999999999 Q69.03325 -52.10499999999999 60.016625 -52.10499999999999 Q51.0 -52.10499999999999 44.5625 -45.67924999999999 Q38.125 -39.25349999999999 38.125 -30.22999999999999 Q38.125 -27.22999999999999 38.928625 -24.47999999999999 Q39.732125 -21.72999999999999 41.125 -19.22999999999999 Q42.75 -16.47999999999999 42.576875 -13.66749999999999 Q42.403875 -10.85499999999999 40.5 -8.97999999999999 Q38.375 -6.85499999999999 35.5625 -6.97999999999999 Q32.75 -7.10499999999999 31.125 -9.22999999999999 Z M15.5 6.39500000000001 Q9.375 -1.1049999999999898 5.875 -10.416624999999996 Q2.375 -19.72824999999999 2.375 -30.22999999999999 Q2.375 -42.190749999999994 6.875 -52.71037499999999 Q11.375 -63.22999999999999 19.1875 -71.04249999999999 Q27.0 -78.85499999999999 37.528875 -83.35499999999999 Q48.05775 -87.85499999999999 60.028875 -87.85499999999999 Q72.0 -87.85499999999999 82.5 -83.35499999999999 Q93.0 -78.85499999999999 100.8125 -71.04249999999999 Q108.625 -63.22999999999999 113.125 -52.71037499999999 Q117.625 -42.190749999999994 117.625 -30.22999999999999 Q117.625 -19.778499999999994 114.125 -10.441749999999985 Q110.625 -1.1049999999999898 104.5 6.39500000000001 Q102.75 8.52000000000001 99.9375 8.58250000000001 Q97.125 8.64500000000001 95.038 6.558000000000007 Q93.125 4.64500000000001 93.0625 1.8325000000000102 Q93.0 -0.9799999999999898 94.75 -3.3549999999999898 Q99.125 -8.97999999999999 101.5 -15.79249999999999 Q103.875 -22.60499999999999 103.875 -30.22999999999999 Q103.875 -48.47999999999999 91.0625 -61.29249999999999 Q78.25 -74.10499999999999 60.0 -74.10499999999999 Q41.75 -74.10499999999999 28.9375 -61.29249999999999 Q16.125 -48.47999999999999 16.125 -30.22999999999999 Q16.125 -22.60499999999999 18.5625 -15.76787499999999 Q21.0 -8.930874999999986 25.375 -3.3549999999999898 Q27.125 -0.9799999999999898 27.04325 1.7700000000000102 Q26.9615 4.52000000000001 25.0 6.52000000000001 Q22.886375 8.64500000000001 20.068125 8.58250000000001 Q17.25 8.52000000000001 15.5 6.39500000000001 Z"/></g><g id="Semibold-M" transform="matrix(1 0 0 1 1985.97 1126)"><path d="M59.989375 -18.039624999999987 Q54.9565 -18.039624999999987 51.383125 -21.623749999999987 Q47.809625 -25.20774999999999 47.809625 -30.240624999999994 Q47.809625 -35.273499999999984 51.39375 -38.84687499999998 Q54.97775 -42.42037499999999 60.010625 -42.42037499999999 Q65.0435 -42.42037499999999 68.616875 -38.83624999999999 Q72.190375 -35.25224999999999 72.190375 -30.219374999999985 Q72.190375 -25.186499999999995 68.60625 -21.613124999999997 Q65.02225 -18.039624999999987 59.989375 -18.039624999999987 Z M33.353125 -10.37124999999999 Q30.266125 -14.528874999999985 28.508 -19.536999999999992 Q26.749875 -24.545124999999985 26.749875 -30.22999999999999 Q26.749875 -44.08424999999999 36.445375 -53.78224999999999 Q46.140875 -63.48012499999999 59.99175 -63.48012499999999 Q73.8425 -63.48012499999999 83.54625 -53.78224999999999 Q93.250125 -44.08424999999999 93.250125 -30.22999999999999 Q93.250125 -24.556124999999994 91.492 -19.488124999999997 Q89.733875 -14.420124999999985 86.646875 -10.316874999999996 Q85.184875 -8.409249999999986 82.663125 -8.373874999999984 Q80.141375 -8.338624999999993 78.2485 -10.231499999999983 Q76.64675 -11.833249999999992 76.513625 -14.29249999999999 Q76.3805 -16.751749999999987 77.8425 -19.12124999999999 Q79.451125 -21.589874999999992 80.2555 -24.367124999999987 Q81.059875 -27.144249999999985 81.059875 -30.22999999999999 Q81.059875 -38.917124999999984 74.87625 -45.10349999999999 Q68.69275 -51.28987499999999 60.009375 -51.28987499999999 Q51.326125 -51.28987499999999 45.133125 -45.10349999999999 Q38.940125 -38.917124999999984 38.940125 -30.22999999999999 Q38.940125 -27.12124999999999 39.802 -24.37124999999999 Q40.66375 -21.62124999999999 42.1575 -19.12124999999999 Q43.6195 -16.751749999999987 43.467375 -14.265249999999995 Q43.315125 -11.778874999999985 41.64125 -10.12124999999999 Q39.788 -8.267999999999986 37.3015 -8.365749999999991 Q34.815125 -8.463624999999993 33.353125 -10.37124999999999 Z M18.38025 4.656000000000006 Q12.472625 -2.4636249999999933 9.08125 -11.340874999999983 Q5.69 -20.218124999999986 5.69 -30.22999999999999 Q5.69 -41.501249999999985 9.9455 -51.41462499999999 Q14.200875 -61.32799999999999 21.5515 -68.67849999999999 Q28.902 -76.029125 38.820625 -80.2845 Q48.739125 -84.53999999999999 60.01625 -84.53999999999999 Q71.2935 -84.53999999999999 81.19575 -80.2845 Q91.098 -76.029125 98.4485 -68.67849999999999 Q105.799125 -61.32799999999999 110.0545 -51.41462499999999 Q114.31 -41.501249999999985 114.31 -30.22999999999999 Q114.31 -20.246499999999983 110.91875 -11.327874999999992 Q107.527375 -2.409249999999986 101.61975 4.710375000000013 Q100.03275 6.563625000000016 97.5735 6.598875000000007 Q95.11425 6.634250000000009 93.2825 4.802500000000009 Q91.603375 3.12337500000001 91.540875 0.6368750000000034 Q91.478375 -1.849499999999992 93.065375 -3.8984999999999843 Q97.386 -9.36037499999999 99.788125 -16.036999999999992 Q102.190375 -22.71374999999999 102.190375 -30.22999999999999 Q102.190375 -47.82787499999999 89.894125 -60.12412499999999 Q77.597875 -72.42037499999999 60.0 -72.42037499999999 Q42.402125 -72.42037499999999 30.105875 -60.12412499999999 Q17.809625 -47.82787499999999 17.809625 -30.22999999999999 Q17.809625 -22.71374999999999 20.247125 -16.05037499999999 Q22.684625 -9.386999999999986 27.059625 -3.9527499999999947 Q28.646625 -1.903874999999985 28.57325 0.5472500000000053 Q28.499875 2.99837500000001 26.739 4.781000000000006 Q24.892125 6.634250000000009 22.429625 6.571750000000009 Q19.96725 6.509250000000009 18.38025 4.656000000000006 Z"/></g><g id="Medium-M" transform="matrix(1 0 0 1 1689.91 1126)"><path d="M59.9955 -19.30337499999999 Q55.486375 -19.30337499999999 52.279875 -22.514374999999987 Q49.073375 -25.725374999999985 49.073375 -30.234499999999983 Q49.073375 -34.743624999999994 52.284375 -37.950124999999986 Q55.495375 -41.15662499999999 60.0045 -41.15662499999999 Q64.513625 -41.15662499999999 67.720125 -37.94562499999999 Q70.926625 -34.734624999999994 70.926625 -30.225499999999997 Q70.926625 -25.716374999999985 67.715625 -22.509874999999994 Q64.504625 -19.30337499999999 59.9955 -19.30337499999999 Z M35.024375 -11.227249999999984 Q32.05975 -15.221874999999983 30.342375 -20.00887499999999 Q28.625 -24.795999999999992 28.625 -30.22999999999999 Q28.625 -43.30287499999999 37.775 -52.453999999999986 Q46.925 -61.60499999999999 59.9965 -61.60499999999999 Q73.068 -61.60499999999999 82.2215 -52.453999999999986 Q91.375 -43.30287499999999 91.375 -30.22999999999999 Q91.375 -24.800624999999997 89.657625 -19.916124999999994 Q87.94025 -15.031624999999991 84.975625 -11.132124999999988 Q83.635875 -9.387624999999986 81.379125 -9.372624999999985 Q79.12225 -9.357749999999996 77.384 -11.09599999999999 Q75.913 -12.566999999999993 75.820625 -14.76124999999999 Q75.72825 -16.955499999999986 77.068 -19.039749999999984 Q78.758125 -21.526499999999984 79.60325 -24.323999999999984 Q80.448375 -27.121624999999995 80.448375 -30.22999999999999 Q80.448375 -38.66499999999999 74.442875 -44.67162499999999 Q68.43725 -50.67837499999999 60.004 -50.67837499999999 Q51.570625 -50.67837499999999 45.561125 -44.67162499999999 Q39.551625 -38.66499999999999 39.551625 -30.22999999999999 Q39.551625 -27.039749999999984 40.457125 -24.289749999999984 Q41.362625 -21.539749999999984 42.932 -19.039749999999984 Q44.27175 -16.955499999999986 44.13525 -14.71374999999999 Q43.99875 -12.471874999999983 42.49725 -10.977249999999984 Q40.84775 -9.327749999999995 38.606 -9.405249999999995 Q36.364125 -9.482749999999996 35.024375 -11.227249999999984 Z M20.54075 3.3515000000000157 Q14.796125 -3.482749999999996 11.486375 -12.034124999999989 Q8.176625 -20.585499999999996 8.176625 -30.22999999999999 Q8.176625 -40.98424999999999 12.248625 -50.44274999999999 Q16.320625 -59.90124999999999 23.32475 -66.90525 Q30.32875 -73.90937499999998 39.7895 -77.98137499999999 Q49.25025 -82.05337499999999 60.006875 -82.05337499999999 Q70.763625 -82.05337499999999 80.217375 -77.98137499999999 Q89.67125 -73.90937499999998 96.67525 -66.90525 Q103.679375 -59.90124999999999 107.751375 -50.44274999999999 Q111.823375 -40.98424999999999 111.823375 -30.22999999999999 Q111.823375 -20.597499999999997 108.513625 -11.99262499999999 Q105.203875 -3.3876249999999857 99.45925 3.4466250000000116 Q97.994625 5.096125000000015 95.80025 5.111000000000004 Q93.606 5.126000000000005 91.965625 3.485625000000013 Q90.462 1.9820000000000135 90.3995 -0.25987499999999386 Q90.337 -2.501749999999987 91.801625 -4.306124999999994 Q96.0815 -9.645749999999992 98.504125 -16.220499999999987 Q100.926625 -22.795249999999996 100.926625 -30.22999999999999 Q100.926625 -47.33874999999999 89.017625 -59.24762499999999 Q77.10875 -71.15662499999999 60.0 -71.15662499999999 Q42.89125 -71.15662499999999 30.982375 -59.24762499999999 Q19.073375 -47.33874999999999 19.073375 -30.22999999999999 Q19.073375 -22.795249999999996 21.510875 -16.262124999999983 Q23.948375 -9.729124999999996 28.323375 -4.40124999999999 Q29.788 -2.596874999999983 29.720875 -0.3698749999999933 Q29.653875 1.8570000000000135 28.0435 3.4765000000000157 Q26.39675 5.126000000000005 24.201 5.063500000000005 Q22.005375 5.001000000000005 20.54075 3.3515000000000157 Z"/></g><g id="Regular-M" transform="matrix(1 0 0 1 1394.06 1126)"><path d="M60.0 -20.22999999999999 Q55.875 -20.22999999999999 52.9375 -23.16749999999999 Q50.0 -26.10499999999999 50.0 -30.22999999999999 Q50.0 -34.35499999999999 52.9375 -37.29249999999999 Q55.875 -40.22999999999999 60.0 -40.22999999999999 Q64.125 -40.22999999999999 67.0625 -37.29249999999999 Q70.0 -34.35499999999999 70.0 -30.22999999999999 Q70.0 -26.10499999999999 67.0625 -23.16749999999999 Q64.125 -20.22999999999999 60.0 -20.22999999999999 Z M36.25 -11.85499999999999 Q33.375 -15.72999999999999 31.6875 -20.35499999999999 Q30.0 -24.97999999999999 30.0 -30.22999999999999 Q30.0 -42.72999999999999 38.75 -51.47999999999999 Q47.5 -60.22999999999999 60.0 -60.22999999999999 Q72.5 -60.22999999999999 81.25 -51.47999999999999 Q90.0 -42.72999999999999 90.0 -30.22999999999999 Q90.0 -24.97999999999999 88.3125 -20.22999999999999 Q86.625 -15.47999999999999 83.75 -11.72999999999999 Q82.5 -10.10499999999999 80.4375 -10.10499999999999 Q78.375 -10.10499999999999 76.75 -11.72999999999999 Q75.375 -13.10499999999999 75.3125 -15.10499999999999 Q75.25 -17.10499999999999 76.5 -18.97999999999999 Q78.25 -21.47999999999999 79.125 -24.29249999999999 Q80.0 -27.10499999999999 80.0 -30.22999999999999 Q80.0 -38.47999999999999 74.125 -44.35499999999999 Q68.25 -50.22999999999999 60.0 -50.22999999999999 Q51.75 -50.22999999999999 45.875 -44.35499999999999 Q40.0 -38.47999999999999 40.0 -30.22999999999999 Q40.0 -26.97999999999999 40.9375 -24.22999999999999 Q41.875 -21.47999999999999 43.5 -18.97999999999999 Q44.75 -17.10499999999999 44.625 -15.04249999999999 Q44.5 -12.97999999999999 43.125 -11.60499999999999 Q41.625 -10.10499999999999 39.5625 -10.16749999999999 Q37.5 -10.22999999999999 36.25 -11.85499999999999 Z M22.125 2.3950000000000102 Q16.5 -4.22999999999999 13.25 -12.54249999999999 Q10.0 -20.85499999999999 10.0 -30.22999999999999 Q10.0 -40.60499999999999 13.9375 -49.72999999999999 Q17.875 -58.85499999999999 24.625 -65.60499999999999 Q31.375 -72.35499999999999 40.5 -76.29249999999999 Q49.625 -80.22999999999999 60.0 -80.22999999999999 Q70.375 -80.22999999999999 79.5 -76.29249999999999 Q88.625 -72.35499999999999 95.375 -65.60499999999999 Q102.125 -58.85499999999999 106.0625 -49.72999999999999 Q110.0 -40.60499999999999 110.0 -30.22999999999999 Q110.0 -20.85499999999999 106.75 -12.47999999999999 Q103.5 -4.10499999999999 97.875 2.5200000000000102 Q96.5 4.02000000000001 94.5 4.02000000000001 Q92.5 4.02000000000001 91.0 2.5200000000000102 Q89.625 1.1450000000000102 89.5625 -0.9174999999999898 Q89.5 -2.9799999999999898 90.875 -4.60499999999999 Q95.125 -9.85499999999999 97.5625 -16.35499999999999 Q100.0 -22.85499999999999 100.0 -30.22999999999999 Q100.0 -46.97999999999999 88.375 -58.60499999999999 Q76.75 -70.22999999999999 60.0 -70.22999999999999 Q43.25 -70.22999999999999 31.625 -58.60499999999999 Q20.0 -46.97999999999999 20.0 -30.22999999999999 Q20.0 -22.85499999999999 22.4375 -16.41749999999999 Q24.875 -9.97999999999999 29.25 -4.72999999999999 Q30.625 -3.1049999999999898 30.5625 -1.0424999999999898 Q30.5 1.0200000000000102 29.0 2.5200000000000102 Q27.5 4.02000000000001 25.5 3.9575000000000102 Q23.5 3.8950000000000102 22.125 2.3950000000000102 Z"/></g><g id="Light-M" transform="matrix(1 0 0 1 1098.18 1126)"><path d="M60.0 -22.730124999999987 Q56.93275 -22.730124999999987 54.7165 -24.946499999999986 Q52.500125 -27.16274999999999 52.500125 -30.22999999999999 Q52.500125 -33.29724999999999 54.7165 -35.51349999999999 Q56.93275 -37.72987499999999 60.0 -37.72987499999999 Q63.06725 -37.72987499999999 65.2835 -35.51349999999999 Q67.499875 -33.29724999999999 67.499875 -30.22999999999999 Q67.499875 -27.16274999999999 65.2835 -24.946499999999986 Q63.06725 -22.730124999999987 60.0 -22.730124999999987 Z M38.846375 -12.672374999999988 Q35.92325 -16.306999999999988 34.21175 -20.73962499999999 Q32.500125 -25.172374999999988 32.500125 -30.22999999999999 Q32.500125 -41.67224999999999 40.529 -49.700999999999986 Q48.55775 -57.72987499999999 60.0 -57.72987499999999 Q71.44225 -57.72987499999999 79.471 -49.700999999999986 Q87.499875 -41.67224999999999 87.499875 -30.22999999999999 Q87.499875 -25.172374999999988 85.78825 -20.66274999999999 Q84.07675 -16.15312499999999 81.153625 -12.595499999999987 Q80.192125 -11.355124999999987 78.6585 -11.355124999999987 Q77.124875 -11.355124999999987 75.8845 -12.595499999999987 Q74.846125 -13.633874999999989 74.807625 -15.12899999999999 Q74.76925 -16.62424999999999 75.73075 -18.018374999999992 Q77.76925 -20.614499999999992 78.884625 -23.69149999999999 Q80.0 -26.768374999999992 80.0 -30.22999999999999 Q80.0 -38.47999999999999 74.125 -44.35499999999999 Q68.25 -50.22999999999999 60.0 -50.22999999999999 Q51.75 -50.22999999999999 45.875 -44.35499999999999 Q40.0 -38.47999999999999 40.0 -30.22999999999999 Q40.0 -26.69149999999999 41.153875 -23.65299999999999 Q42.30775 -20.614499999999992 44.26925 -18.018374999999992 Q45.23075 -16.62424999999999 45.177875 -15.11462499999999 Q45.125 -13.60499999999999 44.0385 -12.518499999999989 Q42.875125 -11.355124999999987 41.3415 -11.393499999999989 Q39.807875 -11.431999999999988 38.846375 -12.672374999999988 Z M24.721375 1.529500000000013 Q19.04825 -4.85499999999999 15.77425 -12.92712499999999 Q12.500125 -20.99924999999999 12.500125 -30.22999999999999 Q12.500125 -40.07612499999999 16.245375 -48.74437499999999 Q19.9905 -57.41262499999999 26.404 -63.825999999999986 Q32.817375 -70.23949999999999 41.485625 -73.984625 Q50.153875 -77.72987499999999 60.0 -77.72987499999999 Q69.846125 -77.72987499999999 78.514375 -73.984625 Q87.182625 -70.23949999999999 93.596 -63.825999999999986 Q100.0095 -57.41262499999999 103.754625 -48.74437499999999 Q107.499875 -40.07612499999999 107.499875 -30.22999999999999 Q107.499875 -21.047374999999988 104.22575 -12.912749999999988 Q100.95175 -4.778124999999989 95.278625 1.6065000000000111 Q94.24025 2.7218750000000114 92.721 2.7458750000000123 Q91.201875 2.769875000000013 90.0865 1.6065000000000111 Q89.048 0.568000000000012 89.033625 -0.9896249999999895 Q89.01925 -2.547249999999991 90.057625 -3.7394999999999925 Q94.69225 -9.037624999999991 97.346125 -15.777999999999992 Q100.0 -22.518374999999992 100.0 -30.22999999999999 Q100.0 -46.97999999999999 88.375 -58.60499999999999 Q76.75 -70.22999999999999 60.0 -70.22999999999999 Q43.25 -70.22999999999999 31.625 -58.60499999999999 Q20.0 -46.97999999999999 20.0 -30.22999999999999 Q20.0 -22.518374999999992 22.677875 -15.81649999999999 Q25.35575 -9.114499999999992 30.067375 -3.8164999999999907 Q31.10575 -2.5761249999999905 31.091375 -1.0664999999999907 Q31.077 0.44300000000001205 29.9135 1.6065000000000111 Q28.798125 2.7218750000000114 27.279 2.6833750000000123 Q25.75975 2.644875000000013 24.721375 1.529500000000013 Z"/></g><g id="Thin-M" transform="matrix(1 0 0 1 802.565 1126)"><path d="M60.0 -25.22999999999999 Q57.990375 -25.22999999999999 56.495125 -26.72512499999999 Q55.0 -28.22037499999999 55.0 -30.22999999999999 Q55.0 -32.23962499999999 56.495125 -33.73487499999999 Q57.990375 -35.22999999999999 60.0 -35.22999999999999 Q62.009625 -35.22999999999999 63.504875 -33.73487499999999 Q65.0 -32.23962499999999 65.0 -30.22999999999999 Q65.0 -28.22037499999999 63.504875 -26.72512499999999 Q62.009625 -25.22999999999999 60.0 -25.22999999999999 Z M41.44225 -13.48962499999999 Q38.471125 -16.88387499999999 36.7355 -21.12424999999999 Q35.0 -25.36462499999999 35.0 -30.22999999999999 Q35.0 -40.61462499999999 42.307625 -47.92237499999999 Q49.615375 -55.22999999999999 60.0 -55.22999999999999 Q70.384625 -55.22999999999999 77.692375 -47.92237499999999 Q85.0 -40.61462499999999 85.0 -30.22999999999999 Q85.0 -25.36462499999999 83.2645 -21.09537499999999 Q81.528875 -16.82612499999999 78.55775 -13.46074999999999 Q77.884625 -12.60499999999999 76.879875 -12.60499999999999 Q75.875 -12.60499999999999 75.01925 -13.46074999999999 Q74.317375 -14.162624999999991 74.302875 -15.153124999999989 Q74.2885 -16.14349999999999 74.9615 -17.05687499999999 Q77.2885 -19.74924999999999 78.64425 -23.09062499999999 Q80.0 -26.43187499999999 80.0 -30.22999999999999 Q80.0 -38.47999999999999 74.125 -44.35499999999999 Q68.25 -50.22999999999999 60.0 -50.22999999999999 Q51.75 -50.22999999999999 45.875 -44.35499999999999 Q40.0 -38.47999999999999 40.0 -30.22999999999999 Q40.0 -26.40312499999999 41.37025 -23.07612499999999 Q42.740375 -19.74924999999999 45.0385 -17.05687499999999 Q45.7115 -16.14349999999999 45.73075 -15.18674999999999 Q45.75 -14.22999999999999 44.951875 -13.431874999999991 Q44.125 -12.60499999999999 43.120125 -12.619374999999991 Q42.115375 -12.633874999999989 41.44225 -13.48962499999999 Z M27.31725 0.6642500000000098 Q21.596125 -5.47999999999999 18.298 -13.31174999999999 Q15.0 -21.14349999999999 15.0 -30.22999999999999 Q15.0 -39.54737499999999 18.552875 -47.75887499999999 Q22.10575 -55.97037499999999 28.182625 -62.04737499999999 Q34.259625 -68.12424999999999 42.471125 -71.67712499999999 Q50.682625 -75.22999999999999 60.0 -75.22999999999999 Q69.317375 -75.22999999999999 77.528875 -71.67712499999999 Q85.740375 -68.12424999999999 91.817375 -62.04737499999999 Q97.89425 -55.97037499999999 101.447125 -47.75887499999999 Q105.0 -39.54737499999999 105.0 -30.22999999999999 Q105.0 -21.23962499999999 101.702 -13.34537499999999 Q98.403875 -5.4511249999999905 92.68275 0.6931250000000091 Q91.98075 1.4238750000000095 90.942375 1.4718750000000114 Q89.903875 1.5200000000000102 89.173125 0.6931250000000091 Q88.471125 -0.008874999999989086 88.504875 -1.0617499999999893 Q88.5385 -2.1146249999999895 89.240375 -2.8742499999999893 Q94.259625 -8.22037499999999 97.12975 -15.20112499999999 Q100.0 -22.18187499999999 100.0 -30.22999999999999 Q100.0 -46.97999999999999 88.375 -58.60499999999999 Q76.75 -70.22999999999999 60.0 -70.22999999999999 Q43.25 -70.22999999999999 31.625 -58.60499999999999 Q20.0 -46.97999999999999 20.0 -30.22999999999999 Q20.0 -22.18187499999999 22.91825 -15.215624999999989 Q25.8365 -8.24924999999999 30.884625 -2.9031249999999886 Q31.5865 -2.047374999999988 31.620125 -1.0906249999999886 Q31.653875 -0.13387499999998909 30.826875 0.6931250000000091 Q30.096125 1.4238750000000095 29.057625 1.4093750000000114 Q28.01925 1.3950000000000102 27.31725 0.6642500000000098 Z"/></g><g id="Ultralight-M" transform="matrix(1 0 0 1 506.415 1126)"><path d="M60.0 -26.72999999999999 Q58.625 -26.72999999999999 57.5625 -27.79249999999999 Q56.5 -28.85499999999999 56.5 -30.22999999999999 Q56.5 -31.60499999999999 57.5625 -32.66749999999999 Q58.625 -33.72999999999999 60.0 -33.72999999999999 Q61.375 -33.72999999999999 62.4375 -32.66749999999999 Q63.5 -31.60499999999999 63.5 -30.22999999999999 Q63.5 -28.85499999999999 62.4375 -27.79249999999999 Q61.375 -26.72999999999999 60.0 -26.72999999999999 Z M43.0 -13.97999999999999 Q40.0 -17.22999999999999 38.25 -21.35499999999999 Q36.5 -25.47999999999999 36.5 -30.22999999999999 Q36.5 -39.97999999999999 43.375 -46.85499999999999 Q50.25 -53.72999999999999 60.0 -53.72999999999999 Q69.75 -53.72999999999999 76.625 -46.85499999999999 Q83.5 -39.97999999999999 83.5 -30.22999999999999 Q83.5 -25.47999999999999 81.75 -21.35499999999999 Q80.0 -17.22999999999999 77.0 -13.97999999999999 Q76.5 -13.35499999999999 75.8125 -13.35499999999999 Q75.125 -13.35499999999999 74.5 -13.97999999999999 Q74.0 -14.47999999999999 74.0 -15.16749999999999 Q74.0 -15.85499999999999 74.5 -16.47999999999999 Q77.0 -19.22999999999999 78.5 -22.72999999999999 Q80.0 -26.22999999999999 80.0 -30.22999999999999 Q80.0 -38.47999999999999 74.125 -44.35499999999999 Q68.25 -50.22999999999999 60.0 -50.22999999999999 Q51.75 -50.22999999999999 45.875 -44.35499999999999 Q40.0 -38.47999999999999 40.0 -30.22999999999999 Q40.0 -26.22999999999999 41.5 -22.72999999999999 Q43.0 -19.22999999999999 45.5 -16.47999999999999 Q46.0 -15.85499999999999 46.0625 -15.22999999999999 Q46.125 -14.60499999999999 45.5 -13.97999999999999 Q44.875 -13.35499999999999 44.1875 -13.35499999999999 Q43.5 -13.35499999999999 43.0 -13.97999999999999 Z M28.875 0.14500000000001023 Q23.125 -5.85499999999999 19.8125 -13.54249999999999 Q16.5 -21.22999999999999 16.5 -30.22999999999999 Q16.5 -39.22999999999999 19.9375 -47.16749999999999 Q23.375 -55.10499999999999 29.25 -60.97999999999999 Q35.125 -66.85499999999999 43.0625 -70.29249999999999 Q51.0 -73.72999999999999 60.0 -73.72999999999999 Q69.0 -73.72999999999999 76.9375 -70.29249999999999 Q84.875 -66.85499999999999 90.75 -60.97999999999999 Q96.625 -55.10499999999999 100.0625 -47.16749999999999 Q103.5 -39.22999999999999 103.5 -30.22999999999999 Q103.5 -21.35499999999999 100.1875 -13.60499999999999 Q96.875 -5.85499999999999 91.125 0.14500000000001023 Q90.625 0.6450000000000102 89.875 0.7075000000000102 Q89.125 0.7700000000000102 88.625 0.14500000000001023 Q88.125 -0.35499999999998977 88.1875 -1.1049999999999898 Q88.25 -1.8549999999999898 88.75 -2.3549999999999898 Q94.0 -7.72999999999999 97.0 -14.85499999999999 Q100.0 -21.97999999999999 100.0 -30.22999999999999 Q100.0 -46.97999999999999 88.375 -58.60499999999999 Q76.75 -70.22999999999999 60.0 -70.22999999999999 Q43.25 -70.22999999999999 31.625 -58.60499999999999 Q20.0 -46.97999999999999 20.0 -30.22999999999999 Q20.0 -21.97999999999999 23.0625 -14.85499999999999 Q26.125 -7.72999999999999 31.375 -2.3549999999999898 Q31.875 -1.7299999999999898 31.9375 -1.1049999999999898 Q32.0 -0.47999999999998977 31.375 0.14500000000001023 Q30.875 0.6450000000000102 30.125 0.6450000000000102 Q29.375 0.6450000000000102 28.875 0.14500000000001023 Z"/></g><g id="Bold-S" transform="matrix(1 0 0 1 2294.23 696)"><path d="M47.32520625 -20.14037499999999 Q42.80325 -20.14037499999999 39.4993125 -23.45910624999999 Q36.195375 -26.777936124999997 36.195375 -31.299793749999992 Q36.195375 -35.821749999999994 39.51410625 -39.12568749999999 Q42.832936125 -42.429624999999994 47.35479375 -42.429624999999994 Q51.87675 -42.429624999999994 55.180687500000005 -39.110893749999995 Q58.484625 -35.79206387499999 58.484625 -31.270206249999994 Q58.484625 -26.74825 55.16589375 -23.444312499999995 Q51.847063874999996 -20.14037499999999 47.32520625 -20.14037499999999 Z M24.459 -14.715999999999994 Q21.894750000000002 -18.167874999999995 20.4646875 -22.351744749999995 Q19.034625000000002 -26.535713125 19.034625000000002 -31.284999999999997 Q19.034625000000002 -43.03784537499999 27.28697325 -51.314060874999996 Q35.5393215 -59.590374999999995 47.328362250000005 -59.590374999999995 Q59.117501625 -59.590374999999995 67.381389 -51.334673499999994 Q75.645375 -43.078873375 75.645375 -31.284999999999997 Q75.645375 -26.550999999999988 74.21531250000001 -22.458062499999997 Q72.78525 -18.365124999999992 70.221 -14.814624999999992 Q68.903665875 -13.137999999999991 66.57720075 -13.088687499999992 Q64.25063700000001 -13.039374999999993 62.548764 -14.695486000000002 Q61.1475 -16.09675 60.950250000000004 -18.365124999999992 Q60.753 -20.633499999999998 62.133750000000006 -22.90187499999999 Q63.120000000000005 -24.7319605 63.71175 -26.85338424999999 Q64.3035 -28.974906624999996 64.3035 -31.33214274999999 Q64.3035 -38.310157374999996 59.311792874999995 -43.279279374999994 Q54.320184375 -48.24849999999999 47.328855375 -48.24849999999999 Q40.337625 -48.24849999999999 35.357062500000005 -43.265471874999996 Q30.3765 -38.28244375 30.3765 -31.284999999999997 Q30.3765 -29.115249999999996 30.961247625 -26.945499999999996 Q31.545896625000005 -24.775749999999988 32.54625 -22.90187499999999 Q33.927 -20.633499999999998 33.741091875 -18.365124999999992 Q33.555282375000004 -16.09675 32.053125 -14.617374999999996 Q30.323932875 -12.842124999999996 28.032479625 -12.940749999999994 Q25.741125 -13.039374999999993 24.459 -14.715999999999994 Z M12.130875000000001 -2.4864999999999924 Q7.344012 -8.388811749999988 4.6089435000000005 -15.716550624999996 Q1.8738750000000002 -23.044388124999998 1.8738750000000002 -31.308768624999992 Q1.8738750000000002 -40.72203175 5.424375 -49.022015874999994 Q8.974875 -57.321999999999996 15.1389375 -63.486062499999996 Q21.303 -69.650125 29.610282375 -73.200625 Q37.917564750000004 -76.751125 47.362782375 -76.751125 Q56.808 -76.751125 65.0925 -73.200625 Q73.37700000000001 -69.650125 79.54106250000001 -63.486062499999996 Q85.70512500000001 -57.321999999999996 89.25562500000001 -49.022015874999994 Q92.80612500000001 -40.72203175 92.80612500000001 -31.284999999999997 Q92.80612500000001 -23.038766499999994 90.09393750000001 -15.770695749999987 Q87.38175000000001 -8.502624999999995 82.549125 -2.585124999999991 Q81.168375 -0.809874999999991 78.834513 -0.7605624999999918 Q76.500749625 -0.7112499999999926 74.76800700000001 -2.4607588749999962 Q73.17975 -4.064499999999995 73.17975 -6.283562499999988 Q73.17975 -8.502624999999995 74.5605 -10.475124999999991 Q77.91375000000001 -14.91324999999999 79.7383125 -20.18968749999999 Q81.562875 -25.46612499999999 81.562875 -31.284999999999997 Q81.562875 -45.51905312499999 71.575022625 -55.513414749999995 Q61.58717025 -65.507875 47.362585125 -65.507875 Q33.138 -65.507875 23.1275625 -55.513414749999995 Q13.117125 -45.51905312499999 13.117125 -31.284999999999997 Q13.117125 -25.46612499999999 14.991000000000001 -20.12094587499999 Q16.864875 -14.775865374999995 20.119500000000002 -10.376499999999993 Q21.50025 -8.446901874999995 21.43574925 -6.206339124999985 Q21.3712485 -3.965874999999997 19.823625 -2.387874999999994 Q18.155974875000002 -0.7112499999999926 15.833750624999999 -0.7112499999999926 Q13.511625 -0.7112499999999926 12.130875000000001 -2.4864999999999924 Z"/></g><g id="Semibold-S" transform="matrix(1 0 0 1 1998.1 696)"><path d="M47.331616875 -21.469544124999985 Q43.3606785 -21.469544124999985 40.442660625 -24.39604374999999 Q37.524544125 -27.32244474999999 37.524544125 -31.293383125 Q37.524544125 -35.26432149999999 40.45104375 -38.18233937499999 Q43.37744475 -41.100455874999994 47.348383125 -41.100455874999994 Q51.3193215 -41.100455874999994 54.237339375 -38.173956249999996 Q57.15545587500001 -35.24755524999999 57.15545587500001 -31.276616874999988 Q57.15545587500001 -27.3056785 54.22895625 -24.387660624999995 Q51.302555250000005 -21.469544124999985 47.331616875 -21.469544124999985 Z M26.216990625 -15.616446249999996 Q23.781347625 -18.896812374999996 22.394187 -22.84822299999999 Q21.007026375 -26.799633624999984 21.007026375 -31.284999999999997 Q21.007026375 -42.21600324999999 28.685574375 -49.91703775 Q36.364122375 -57.61797362499999 47.33349075 -57.61797362499999 Q58.3027605 -57.61797362499999 65.987916375 -49.93755174999999 Q73.672973625 -42.25712987499999 73.672973625 -31.284999999999997 Q73.672973625 -26.808312625 72.285813 -22.908285625000005 Q70.898652375 -19.008258624999996 68.463009375 -15.672169374999996 Q67.27428225 -14.167053249999995 65.22653137500001 -14.139142374999992 Q63.178681875 -14.111330124999995 61.63944150000001 -15.60480849999999 Q60.37566075 -16.86858925 60.221312625 -18.858249999999998 Q60.0669645 -20.847910749999997 61.3191075 -22.816071249999993 Q62.391062625 -24.665191374999992 63.0257145 -26.808213999999992 Q63.66036637500001 -28.951137999999993 63.66036637500001 -31.33214274999999 Q63.66036637500001 -38.044856125 58.855948125000005 -42.82511124999999 Q54.05152987500001 -47.605366374999996 47.32323375 -47.605366374999996 Q40.594937625 -47.605366374999996 35.807285625 -42.811205125 Q31.019633625000004 -38.01714249999999 31.019633625000004 -31.284999999999997 Q31.019633625000004 -29.029446249999992 31.650340500000002 -26.85969625 Q32.28094875 -24.68994624999999 33.3608925 -22.816071249999993 Q34.6130355 -20.847910749999997 34.443696375 -18.836749749999996 Q34.274258625 -16.825687374999987 32.95357125 -15.517821249999997 Q31.438691249999998 -13.956981999999996 29.404550625 -14.034106749999992 Q27.370508625000003 -14.111330124999995 26.216990625 -15.616446249999996 Z M14.403392250000001 -3.8585709999999978 Q9.788038125000002 -9.46076687499999 7.138674750000001 -16.44578387499999 Q4.48941 -23.430899499999995 4.48941 -31.308768624999992 Q4.48941 -40.17801624999999 7.8469995 -47.99966912499999 Q11.204490375 -55.821321999999995 17.004133500000002 -61.6208665 Q22.803678 -67.420509625 30.629473125 -70.77800049999999 Q38.455169625 -74.13559 47.35282125 -74.13559 Q56.2505715 -74.13559 64.06344675000001 -70.77800049999999 Q71.876322 -67.420509625 77.6758665 -61.6208665 Q83.475509625 -55.821321999999995 86.83300050000001 -47.99966912499999 Q90.19059 -40.17801624999999 90.19059 -31.284999999999997 Q90.19059 -23.408018499999983 87.56420625000001 -16.469848374999998 Q84.937723875 -9.531678249999985 80.27660775 -3.9142941249999836 Q79.02446474999999 -2.353454874999983 76.969415625 -2.3256426250000004 Q74.91426787500001 -2.297731749999997 73.3829175 -3.8459469999999953 Q71.97918787500001 -5.265062125 71.97918787500001 -7.226910625000002 Q71.97918787500001 -9.188660499999997 73.23133087500001 -10.90394649999999 Q76.541679 -15.213365874999994 78.387643125 -20.382598 Q80.23370587500001 -25.551928749999988 80.23370587500001 -31.284999999999997 Q80.23370587500001 -45.0045265 70.65317474999999 -54.591566875 Q61.072643625 -64.17870587499999 47.362585125 -64.17870587499999 Q33.652526625 -64.17870587499999 24.049410375 -54.591566875 Q14.446294125000001 -45.0045265 14.446294125000001 -31.284999999999997 Q14.446294125000001 -25.551928749999988 16.320169125 -20.34383837499999 Q18.194044125 -15.135747999999992 21.448669125000002 -10.848124749999997 Q22.700812125000002 -9.175839249999996 22.642919250000002 -7.171088874999995 Q22.585026375 -5.166437124999987 21.195696 -3.7599459999999993 Q19.738511625 -2.297731749999997 17.696974125 -2.297731749999997 Q15.65553525 -2.297731749999997 14.403392250000001 -3.8585709999999978 Z"/></g><g id="Medium-S" transform="matrix(1 0 0 1 1701.85 696)"><path d="M47.3364495 -22.46664287499999 Q43.778749875 -22.46664287499999 41.150196375 -25.09874687499999 Q38.521642875 -27.730850874999987 38.521642875 -31.288550499999985 Q38.521642875 -34.846250125 41.153746875 -37.47480362499999 Q43.785850875 -40.103357124999995 47.3435505 -40.103357124999995 Q50.901250125000004 -40.103357124999995 53.529803625 -37.471253125 Q56.158357125 -34.839149125 56.158357125 -31.2814495 Q56.158357125 -27.723749874999996 53.526253125000004 -25.095196375 Q50.894149125000006 -22.46664287499999 47.3364495 -22.46664287499999 Z M27.535606875 -16.29183024999999 Q25.19651775 -19.443589374999988 23.841508875000002 -23.22053237499999 Q22.4865 -26.997574 22.4865 -31.284999999999997 Q22.4865 -41.599498374999996 29.734648500000002 -48.86904849999999 Q36.982698375000005 -56.13849999999999 47.3372385 -56.13849999999999 Q57.691680000000005 -56.13849999999999 64.94259000000001 -48.8895625 Q72.1935 -41.64062499999999 72.1935 -31.284999999999997 Q72.1935 -27.001223124999996 70.838491125 -23.245977624999995 Q69.48348225000001 -19.490732124999994 67.144393125 -16.315401624999993 Q66.05212125 -14.938991124999987 64.21335675 -14.927156124999996 Q62.374690875 -14.915419749999998 60.957351 -16.28689899999999 Q59.796732 -17.447518000000002 59.67453562500001 -19.22809375 Q59.55233925 -21.008669499999996 60.708027 -22.751767749999985 Q61.844285625000005 -24.615188499999988 62.511089250000005 -26.774188374999994 Q63.177892875000005 -28.933286874999993 63.177892875000005 -31.33214274999999 Q63.177892875000005 -37.845830875 58.51391662500001 -42.484361875 Q53.85003900000001 -47.12289287499999 47.31889425 -47.12289287499999 Q40.787848125000004 -47.12289287499999 36.144977624999996 -42.470554375 Q31.502107125000002 -37.81811724999999 31.502107125000002 -31.284999999999997 Q31.502107125000002 -28.96514274999999 32.167234125 -26.79539274999999 Q32.832361125000006 -24.625642749999983 33.971973000000006 -22.751767749999985 Q35.12766075 -21.008669499999996 34.97064975 -19.19061624999999 Q34.81363875 -17.372464374999993 33.628955250000004 -16.19320524999999 Q32.274932625000005 -14.793124750000004 30.433801125000002 -14.854272249999994 Q28.592669625000003 -14.915419749999998 27.535606875 -16.29183024999999 Z M16.10802675 -4.887821499999987 Q11.621279625 -10.264856499999993 9.036318375 -16.99285675 Q6.451357125 -23.720856999999995 6.451357125 -31.308768624999992 Q6.451357125 -39.77010324999999 9.664165125 -47.232859749999996 Q12.876973125000001 -54.69561624999999 18.403227750000003 -60.221772249999994 Q23.92938375 -65.748026875 31.3939155 -68.96083487499999 Q38.858447250000005 -72.173642875 47.345424375 -72.173642875 Q55.832500125 -72.173642875 63.291508875000005 -68.96083487499999 Q70.75061625000001 -65.748026875 76.27677225000001 -60.221772249999994 Q81.803026875 -54.69561624999999 85.015834875 -47.232859749999996 Q88.228642875 -39.77010324999999 88.228642875 -31.284999999999997 Q88.228642875 -23.684957499999996 85.66656262500001 -16.99433612499999 Q83.104482375 -10.30361612499999 78.57197325 -4.91139287499999 Q77.41638412500001 -3.5113123749999886 75.570321375 -3.4995759999999905 Q73.724258625 -3.4877409999999998 72.343903125 -4.884862749999996 Q71.078643 -6.165606999999994 71.078643 -7.934446374999993 Q71.078643 -9.703285749999992 72.234232125 -11.225562624999995 Q75.51242850000001 -15.438526749999994 77.374567125 -20.527379499999995 Q79.236607125 -25.616232249999996 79.236607125 -31.284999999999997 Q79.236607125 -44.61860687499999 69.96161625 -53.90010699999999 Q60.686724 -63.181607125 47.362585125 -63.181607125 Q34.03844625 -63.181607125 24.740968875000004 -53.90010699999999 Q15.443392874999999 -44.61860687499999 15.443392874999999 -31.284999999999997 Q15.443392874999999 -25.616232249999996 17.317267875 -20.510909124999984 Q19.191142875 -15.405684624999992 22.445767875 -11.201991249999992 Q23.601357 -9.722616249999987 23.548395375000002 -7.894799124999992 Q23.495532375 -6.066981999999996 22.2249465 -4.7891964999999885 Q20.925660750000002 -3.4877409999999998 19.094589000000003 -3.4877409999999998 Q17.263615875000003 -3.4877409999999998 16.10802675 -4.887821499999987 Z"/></g><g id="Regular-S" transform="matrix(1 0 0 1 1405.73 696)"><path d="M47.34 -23.19775 Q44.085375 -23.19775 41.6690625 -25.61406249999999 Q39.25275 -28.030374999999992 39.25275 -31.284999999999997 Q39.25275 -34.539624999999994 41.6690625 -36.9559375 Q44.085375 -39.372249999999994 47.34 -39.372249999999994 Q50.594625 -39.372249999999994 53.010937500000004 -36.9559375 Q55.42725 -34.539624999999994 55.42725 -31.284999999999997 Q55.42725 -28.030374999999992 53.010937500000004 -25.61406249999999 Q50.594625 -23.19775 47.34 -23.19775 Z M28.502625000000002 -16.78712499999999 Q26.23425 -19.844499999999996 24.9028125 -23.493624999999994 Q23.571375 -27.142749999999992 23.571375 -31.284999999999997 Q23.571375 -41.147499999999994 30.5039235 -48.100562499999995 Q37.436373375 -55.053625 47.34 -55.053625 Q57.243626625000005 -55.053625 64.1760765 -48.1210765 Q71.108625 -41.188626625 71.108625 -31.284999999999997 Q71.108625 -27.142749999999992 69.7771875 -23.493624999999994 Q68.44575 -19.844499999999996 66.177375 -16.78712499999999 Q65.155915875 -15.504999999999995 63.47051325 -15.504999999999995 Q61.78501200000001 -15.504999999999995 60.457125000000005 -16.78712499999999 Q59.37225 -17.872 59.273625 -19.499312499999988 Q59.175000000000004 -21.12662499999999 60.259875 -22.704624999999993 Q61.443375 -24.57849999999999 62.133750000000006 -26.749334874999988 Q62.824125 -28.92016975 62.824125 -31.33214274999999 Q62.824125 -37.69986587499999 58.263211875 -42.23454474999999 Q53.702200125000005 -46.769124999999995 47.315836875 -46.769124999999995 Q40.929375 -46.769124999999995 36.392625 -42.22063862499999 Q31.855875 -37.672250874999996 31.855875 -31.284999999999997 Q31.855875 -28.917999999999992 32.54625 -26.74825 Q33.236625000000004 -24.57849999999999 34.420125 -22.704624999999993 Q35.505 -21.12662499999999 35.357062500000005 -19.44999999999999 Q35.209125 -17.773374999999987 34.12425 -16.68849999999999 Q32.888182875 -15.406374999999997 31.188479625000003 -15.455687499999996 Q29.488875 -15.504999999999995 28.502625000000002 -16.78712499999999 Z M17.358 -5.642499999999998 Q12.965637000000001 -10.85443674999999 10.4278185 -17.393964624999995 Q7.890000000000001 -23.933393874999993 7.890000000000001 -31.308768624999992 Q7.890000000000001 -39.47087499999999 10.9966875 -46.6705 Q14.103375 -53.870124999999994 19.429125 -59.195874999999994 Q24.754875000000002 -64.521625 31.954500000000003 -67.62831249999999 Q39.154125 -70.735 47.34 -70.735 Q55.525875 -70.735 62.725500000000004 -67.62831249999999 Q69.92512500000001 -64.521625 75.25087500000001 -59.195874999999994 Q80.576625 -53.870124999999994 83.6833125 -46.6705 Q86.79 -39.47087499999999 86.79 -31.284999999999997 Q86.79 -23.888124999999988 84.2750625 -17.378874999999994 Q81.760125 -10.869625 77.322 -5.642499999999998 Q76.237125 -4.360374999999991 74.5443255 -4.360374999999991 Q72.851624625 -4.360374999999991 71.582025 -5.646740874999992 Q70.41825 -6.825999999999993 70.41825 -8.453312499999996 Q70.41825 -10.080624999999998 71.503125 -11.46137499999999 Q74.75775 -15.603624999999994 76.631625 -20.633499999999998 Q78.5055 -25.663374999999988 78.5055 -31.284999999999997 Q78.5055 -44.335553125 69.45458512500001 -53.392977249999994 Q60.40367025 -62.45049999999999 47.362585125 -62.45049999999999 Q34.3215 -62.45049999999999 25.248 -53.392977249999994 Q16.174500000000002 -44.335553125 16.174500000000002 -31.284999999999997 Q16.174500000000002 -25.663374999999988 18.048375 -20.633499999999998 Q19.922250000000002 -15.603624999999994 23.176875000000003 -11.46137499999999 Q24.261750000000003 -10.123526874999982 24.2124375 -8.425401624999992 Q24.163125 -6.727374999999995 22.979625000000002 -5.543875 Q21.796125 -4.360374999999991 20.119500000000002 -4.360374999999991 Q18.442875 -4.360374999999991 17.358 -5.642499999999998 Z"/></g><g id="Light-S" transform="matrix(1 0 0 1 1109.75 696)"><path d="M47.34 -25.17034862499999 Q44.91993975 -25.17034862499999 43.07269350000001 -27.017693499999993 Q41.225348625 -28.86493974999999 41.225348625 -31.284999999999997 Q41.225348625 -33.705060249999995 43.07269350000001 -35.5523065 Q44.91993975 -37.399651375 47.34 -37.399651375 Q49.76006025 -37.399651375 51.60730650000001 -35.5523065 Q53.454651375000005 -33.705060249999995 53.454651375000005 -31.284999999999997 Q53.454651375000005 -28.86493974999999 51.60730650000001 -27.017693499999993 Q49.76006025 -25.17034862499999 47.34 -25.17034862499999 Z M30.551164875 -17.432033874999988 Q28.244819250000003 -20.299752999999995 26.894445750000003 -23.797094124999987 Q25.543973625 -27.294533875 25.543973625 -31.284999999999997 Q25.543973625 -40.312935249999995 31.907455875000004 -46.69693149999999 Q38.27103675 -53.081026375 47.34 -53.081026375 Q56.409061875000006 -53.081026375 62.772544125 -46.71754412499999 Q69.136026375 -40.354061875 69.136026375 -31.284999999999997 Q69.136026375 -27.294533875 67.78555425 -23.835064749999987 Q66.43518075 -20.37559562499999 64.12883512500001 -17.470004499999988 Q63.335002499999995 -16.491348624999986 62.066882250000006 -16.491348624999986 Q60.79876200000001 -16.491348624999986 59.774245500000006 -17.470004499999988 Q58.954967625 -18.289282375 58.87527862500001 -19.5182485 Q58.795688250000005 -20.74731324999999 59.65293675 -21.945902875 Q61.064063250000004 -23.895620499999993 61.944094125 -26.275145874999993 Q62.824125 -28.654572624999986 62.824125 -31.33214274999999 Q62.824125 -37.69986587499999 58.263211875 -42.23454474999999 Q53.702200125000005 -46.769124999999995 47.315836875 -46.769124999999995 Q40.929375 -46.769124999999995 36.392625 -42.22063862499999 Q31.855875 -37.672250874999996 31.855875 -31.284999999999997 Q31.855875 -28.690373499999993 32.716969875000004 -26.292997 Q33.57806475 -23.895620499999993 35.02706325 -21.945902875 Q35.88431175 -20.74731324999999 35.793280875 -19.506906625 Q35.70225 -18.266499999999994 34.8450015 -17.409251499999996 Q33.874432875 -16.392723624999988 32.592110625 -16.423001499999998 Q31.309788375000004 -16.453377999999987 30.551164875 -17.432033874999988 Z M19.406539875 -6.325379499999997 Q14.97620625 -11.347561749999997 12.41945175 -17.697433750000002 Q9.862598625 -24.047207125 9.862598625 -31.308768624999992 Q9.862598625 -39.05359262499999 12.817600875 -45.892841874999995 Q15.772504500000002 -52.732091125 20.832756 -57.79224399999999 Q25.892908875 -62.852495499999996 32.732158125 -65.80739912499999 Q39.571407375 -68.762401375 47.34 -68.762401375 Q55.108592625 -68.762401375 61.947841875 -65.80739912499999 Q68.787091125 -62.852495499999996 73.847244 -57.79224399999999 Q78.90749550000001 -52.732091125 81.86239912500001 -45.892841874999995 Q84.817401375 -39.05359262499999 84.817401375 -31.284999999999997 Q84.817401375 -24.039908874999995 82.28342925000001 -17.720314749999986 Q79.74955575000001 -11.400720624999991 75.27346012500001 -6.36325149999999 Q74.45418225 -5.384595624999989 73.140793125 -5.365659624999992 Q71.82730537500001 -5.346723624999996 70.8612735 -6.36759099999999 Q69.962997 -7.281252999999992 70.000967625 -8.510219124999992 Q70.03893825 -9.739185249999991 70.858216125 -10.778495499999991 Q74.41631025000001 -14.958716124999995 76.46090512500001 -20.178247 Q78.5055 -25.39777787499999 78.5055 -31.284999999999997 Q78.5055 -44.335553125 69.45458512500001 -53.392977249999994 Q60.40367025 -62.45049999999999 47.362585125 -62.45049999999999 Q34.3215 -62.45049999999999 25.248 -53.392977249999994 Q16.174500000000002 -44.335553125 16.174500000000002 -31.284999999999997 Q16.174500000000002 -25.39777787499999 18.238030875 -20.159310999999988 Q20.30156175 -14.920745499999995 23.821783875 -10.740623499999998 Q24.641061750000002 -9.706244499999983 24.629719875 -8.444436249999995 Q24.618378000000003 -7.182627999999994 23.7003765 -6.264626499999991 Q22.820345625 -5.384595624999989 21.523131 -5.365659624999992 Q20.22581775 -5.346723624999996 19.406539875 -6.325379499999997 Z"/></g><g id="Thin-S" transform="matrix(1 0 0 1 814.015 696)"><path d="M47.34 -27.142749999999992 Q45.754405875 -27.142749999999992 44.476028625000005 -28.421028624999998 Q43.19775 -29.699405874999997 43.19775 -31.284999999999997 Q43.19775 -32.870594125 44.476028625000005 -34.148971374999995 Q45.754405875 -35.427249999999994 47.34 -35.427249999999994 Q48.925594125 -35.427249999999994 50.203971375 -34.148971374999995 Q51.48225 -32.870594125 51.48225 -31.284999999999997 Q51.48225 -29.699405874999997 50.203971375 -28.421028624999998 Q48.925594125 -27.142749999999992 47.34 -27.142749999999992 Z M32.59931025 -18.076844124999994 Q30.255092625000003 -20.754907374999988 28.885684500000004 -24.100563249999993 Q27.516375 -27.446219125 27.516375 -31.284999999999997 Q27.516375 -39.478469125 33.310889625 -45.29359637499999 Q39.10540425 -51.108624999999996 47.34 -51.108624999999996 Q55.57459575000001 -51.108624999999996 61.369110375 -45.314110375 Q67.163625 -39.51959575 67.163625 -31.284999999999997 Q67.163625 -27.446219125 65.7943155 -24.176405875 Q64.424907375 -20.906592624999988 62.080689750000005 -18.15268675 Q61.514385000000004 -17.477499999999992 60.6634485 -17.477499999999992 Q59.812512000000005 -17.477499999999992 59.09156325 -18.15268675 Q58.537783875 -18.70646612499999 58.477030875000004 -19.537283124999988 Q58.4163765 -20.36800149999999 59.0459985 -21.18727937499999 Q60.684751500000004 -23.212938249999993 61.75443825 -25.80105549999999 Q62.824125 -28.389074124999986 62.824125 -31.33214274999999 Q62.824125 -37.69986587499999 58.263211875 -42.23454474999999 Q53.702200125000005 -46.769124999999995 47.315836875 -46.769124999999995 Q40.929375 -46.769124999999995 36.392625 -42.22063862499999 Q31.855875 -37.672250874999996 31.855875 -31.284999999999997 Q31.855875 -28.462845624999993 32.88768975 -25.837842624999993 Q33.919405875 -23.212938249999993 35.634001500000004 -21.18727937499999 Q36.2636235 -20.36800149999999 36.22949925 -19.563813249999995 Q36.195375 -18.759625 35.565654375 -18.129904374999995 Q34.860682875 -17.378874999999994 33.995544375 -17.390216874999993 Q33.130405875 -17.401657375 32.59931025 -18.076844124999994 Z M21.45468525 -7.008061749999996 Q16.986479625 -11.840686749999989 14.410690500000001 -18.00080425 Q11.835 -24.161020374999993 11.835 -31.308768624999992 Q11.835 -38.636408874999994 14.638218375000001 -45.11528237499999 Q17.44143675 -51.594155875 22.236091125 -56.38890887499999 Q27.030844125 -61.18356324999999 33.509717625 -63.98678162499999 Q39.988591125000006 -66.78999999999999 47.34 -66.78999999999999 Q54.691408875 -66.78999999999999 61.170282375 -63.98678162499999 Q67.649155875 -61.18356324999999 72.443908875 -56.38890887499999 Q77.23856325 -51.594155875 80.041781625 -45.11528237499999 Q82.845 -38.636408874999994 82.845 -31.284999999999997 Q82.845 -24.191594124999995 80.2921905 -18.061655875 Q77.739282375 -11.93171762499999 73.22531475 -7.083904374999989 Q72.67143675 -6.408717624999994 71.737359375 -6.370845624999987 Q70.803282 -6.332874999999987 70.140620625 -7.088243874999989 Q69.50784262500001 -7.736407374999999 69.58378387500001 -8.567125749999988 Q69.6596265 -9.397844124999992 70.213405875 -10.095813249999992 Q74.07496912500001 -14.313905874999989 76.29018525000001 -19.723092624999992 Q78.5055 -25.132279374999996 78.5055 -31.284999999999997 Q78.5055 -44.335553125 69.45458512500001 -53.392977249999994 Q60.40367025 -62.45049999999999 47.362585125 -62.45049999999999 Q34.3215 -62.45049999999999 25.248 -53.392977249999994 Q16.174500000000002 -44.335553125 16.174500000000002 -31.284999999999997 Q16.174500000000002 -25.132279374999996 18.42768675 -19.685220625 Q20.6808735 -14.238063249999996 24.466594125 -10.019970625 Q25.0203735 -9.288962124999983 25.046903625000002 -8.463372249999992 Q25.073532375 -7.637782374999986 24.421029375000003 -6.98527937499999 Q23.844467625 -6.408717624999994 22.926466125 -6.370845624999987 Q22.00856325 -6.332874999999987 21.45468525 -7.008061749999996 Z"/></g><g id="Ultralight-S" transform="matrix(1 0 0 1 517.792 696)"><path d="M47.34 -28.326249999999995 Q46.255125 -28.326249999999995 45.3181875 -29.263187499999994 Q44.38125 -30.200124999999993 44.38125 -31.284999999999997 Q44.38125 -32.36987499999999 45.3181875 -33.30681249999999 Q46.255125 -34.24374999999999 47.34 -34.24374999999999 Q48.424875 -34.24374999999999 49.3618125 -33.30681249999999 Q50.298750000000005 -32.36987499999999 50.298750000000005 -31.284999999999997 Q50.298750000000005 -30.200124999999993 49.3618125 -29.263187499999994 Q48.424875 -28.326249999999995 47.34 -28.326249999999995 Z M33.828375 -18.46374999999999 Q31.461375 -21.02799999999999 30.080625 -24.282624999999996 Q28.699875000000002 -27.53725 28.699875000000002 -31.284999999999997 Q28.699875000000002 -38.97774999999999 34.1530485 -44.4514375 Q39.606123375 -49.925124999999994 47.34 -49.925124999999994 Q55.073876625000004 -49.925124999999994 60.5269515 -44.471951499999996 Q65.980125 -39.018876625 65.980125 -31.284999999999997 Q65.980125 -27.53725 64.59937500000001 -24.381249999999994 Q63.218625 -21.22524999999999 60.851625000000006 -18.56237499999999 Q60.421915875 -18.069249999999997 59.82138825 -18.069249999999997 Q59.22076200000001 -18.069249999999997 58.681875000000005 -18.56237499999999 Q58.287375000000004 -18.956874999999997 58.238062500000005 -19.548624999999987 Q58.188750000000006 -20.14037499999999 58.681875000000005 -20.732124999999996 Q60.457125000000005 -22.80324999999999 61.640625 -25.516522374999994 Q62.824125 -28.229794749999996 62.824125 -31.33214274999999 Q62.824125 -37.69986587499999 58.263211875 -42.23454474999999 Q53.702200125000005 -46.769124999999995 47.315836875 -46.769124999999995 Q40.929375 -46.769124999999995 36.392625 -42.22063862499999 Q31.855875 -37.672250874999996 31.855875 -31.284999999999997 Q31.855875 -28.326249999999995 32.9900625 -25.56474999999999 Q34.12425 -22.80324999999999 35.998125 -20.732124999999996 Q36.49125 -20.14037499999999 36.49125 -19.5979375 Q36.49125 -19.055499999999995 35.998125 -18.56237499999999 Q35.452432875 -17.970625 34.837604625000004 -17.970625 Q34.222875 -17.970625 33.828375 -18.46374999999999 Z M22.68375 -7.417749999999998 Q18.192762000000002 -12.136561749999998 15.605631 -18.182964624999997 Q13.018500000000001 -24.22926887499999 13.018500000000001 -31.308768624999992 Q13.018500000000001 -38.385999999999996 15.7306875 -44.648687499999994 Q18.442875 -50.91137499999999 23.07825 -55.546749999999996 Q27.713625 -60.182125 33.9763125 -62.8943125 Q40.239000000000004 -65.6065 47.34 -65.6065 Q54.441 -65.6065 60.7036875 -62.8943125 Q66.966375 -60.182125 71.60175000000001 -55.546749999999996 Q76.237125 -50.91137499999999 78.9493125 -44.648687499999994 Q81.6615 -38.385999999999996 81.6615 -31.284999999999997 Q81.6615 -24.282624999999996 79.09725 -18.266499999999994 Q76.533 -12.250374999999991 71.99625 -7.5163749999999965 Q71.60175000000001 -7.02324999999999 70.8952005 -6.973937499999991 Q70.188749625 -6.924624999999992 69.70815 -7.52061587499999 Q69.23475 -8.009499999999989 69.333375 -8.601249999999993 Q69.432 -9.192999999999998 69.82650000000001 -9.68612499999999 Q73.870125 -13.926999999999992 76.1878125 -19.44999999999999 Q78.5055 -24.973 78.5055 -31.284999999999997 Q78.5055 -44.335553125 69.45458512500001 -53.392977249999994 Q60.40367025 -62.45049999999999 47.362585125 -62.45049999999999 Q34.3215 -62.45049999999999 25.248 -53.392977249999994 Q16.174500000000002 -44.335553125 16.174500000000002 -31.284999999999997 Q16.174500000000002 -24.973 18.5415 -19.40068749999999 Q20.9085 -13.828374999999994 24.8535 -9.587499999999991 Q25.248 -9.038651874999985 25.2973125 -8.474714124999991 Q25.346625 -7.91087499999999 24.8535 -7.417749999999998 Q24.459 -7.02324999999999 23.768625 -6.973937499999991 Q23.07825 -6.924624999999992 22.68375 -7.417749999999998 Z"/></g></g></svg>